<svg width="1519" height="703" viewBox="0 0 1519 703" fill="none" xmlns="http://www.w3.org/2000/svg">
<path d="M1517.51 699.213L1518.16 296.829L1418.91 274.462L1280.6 274.694L1111.75 297.511L983.253 329.139L842.022 366.636L718.522 418.884L322 701.218L1517.51 699.213Z" fill="#B5B0FF" stroke="black" stroke-linecap="square" stroke-dasharray="2 7 10 15"/>
<path d="M0.19165 -3.20264L0.189207 5.88405L0.0987834 342.091L36.4856 342.1L122.74 326.22L271.661 309.958L437.429 286.544L561.425 244.549L657.8 180.398L720.491 90.1151L746.121 -3.01701L0.19165 -3.20264Z" fill="#B5B0FF"/>
<path d="M0.19165 -3.20264L0.191785 -3.70264C-0.0843575 -3.70271 -0.308275 -3.4789 -0.30835 -3.20276L0.19165 -3.20264ZM0.0987834 342.091L-0.401217 342.091C-0.401291 342.367 -0.177493 342.591 0.0986489 342.591L0.0987834 342.091ZM746.121 -3.01701L746.604 -2.88435C746.645 -3.03477 746.614 -3.19589 746.519 -3.32C746.425 -3.44411 746.278 -3.51697 746.122 -3.51701L746.121 -3.01701ZM122.74 326.22L122.686 325.723C122.674 325.725 122.662 325.726 122.65 325.729L122.74 326.22ZM271.661 309.958L271.715 310.455C271.72 310.454 271.726 310.454 271.731 310.453L271.661 309.958ZM437.429 286.544L437.499 287.039C437.53 287.035 437.56 287.028 437.59 287.018L437.429 286.544ZM561.425 244.549L561.586 245.023C561.627 245.009 561.666 244.99 561.703 244.965L561.425 244.549ZM657.8 180.398L658.077 180.815C658.13 180.78 658.175 180.735 658.211 180.684L657.8 180.398ZM720.491 90.1151L720.902 90.4003C720.934 90.3539 720.958 90.3023 720.973 90.2478L720.491 90.1151ZM36.4856 342.1L36.4855 342.6C36.5159 342.601 36.5462 342.598 36.5761 342.592L36.4856 342.1ZM0.689278 5.61692L0.689413 5.11692L-0.310587 5.11667L-0.310722 5.61667L0.689278 5.61692ZM-0.310218 3.74588L-0.310353 4.24588L0.689647 4.24613L0.689782 3.74613L-0.310218 3.74588ZM0.6905 1.07358L0.690635 0.573575L-0.309365 0.573326L-0.3095 1.07333L0.6905 1.07358ZM-0.308421 -2.93551L-0.308556 -2.43551L0.691444 -2.43526L0.691578 -2.93526L-0.308421 -2.93551ZM1.18875 -2.70239L1.68875 -2.70226L1.68902 -3.70226L1.18902 -3.70239L1.18875 -2.70239ZM8.16964 -3.70065L7.66964 -3.70078L7.66937 -2.70078L8.16937 -2.70065L8.16964 -3.70065ZM18.1417 -2.69817L18.6417 -2.69805L18.642 -3.69805L18.142 -3.69817L18.1417 -2.69817ZM33.1005 -3.69445L32.6005 -3.69457L32.6002 -2.69457L33.1002 -2.69445L33.1005 -3.69445ZM35.0946 -2.69395L35.5946 -2.69383L35.5949 -3.69383L35.0949 -3.69395L35.0946 -2.69395ZM42.0755 -3.69221L41.5755 -3.69234L41.5753 -2.69234L42.0753 -2.69221L42.0755 -3.69221ZM52.0476 -2.68973L52.5476 -2.68961L52.5479 -3.68961L52.0479 -3.68973L52.0476 -2.68973ZM67.0063 -3.68601L66.5063 -3.68613L66.5061 -2.68613L67.0061 -2.68601L67.0063 -3.68601ZM69.0005 -2.68551L69.5005 -2.68539L69.5008 -3.68539L69.0008 -3.68551L69.0005 -2.68551ZM75.9814 -3.68378L75.4814 -3.6839L75.4812 -2.6839L75.9812 -2.68378L75.9814 -3.68378ZM85.9535 -2.68129L86.4535 -2.68117L86.4538 -3.68117L85.9538 -3.68129L85.9535 -2.68129ZM100.912 -3.67757L100.412 -3.6777L100.412 -2.6777L100.912 -2.67757L100.912 -3.67757ZM102.906 -2.67708L103.406 -2.67695L103.407 -3.67695L102.907 -3.67708L102.906 -2.67708ZM109.887 -3.67534L109.387 -3.67546L109.387 -2.67546L109.887 -2.67534L109.887 -3.67534ZM119.859 -2.67286L120.359 -2.67273L120.36 -3.67273L119.86 -3.67286L119.859 -2.67286ZM134.818 -3.66913L134.318 -3.66926L134.318 -2.66926L134.818 -2.66913L134.818 -3.66913ZM136.812 -2.66864L137.312 -2.66851L137.313 -3.66851L136.813 -3.66864L136.812 -2.66864ZM143.793 -3.6669L143.293 -3.66703L143.293 -2.66703L143.793 -2.6669L143.793 -3.6669ZM153.765 -2.66442L154.265 -2.66429L154.266 -3.66429L153.766 -3.66442L153.765 -2.66442ZM168.724 -3.6607L168.224 -3.66082L168.224 -2.66082L168.724 -2.6607L168.724 -3.6607ZM170.718 -2.6602L171.218 -2.66008L171.219 -3.66008L170.719 -3.6602L170.718 -2.6602ZM177.699 -3.65846L177.199 -3.65859L177.199 -2.65859L177.699 -2.65846L177.699 -3.65846ZM187.671 -2.65598L188.171 -2.65586L188.171 -3.65586L187.671 -3.65598L187.671 -2.65598ZM202.63 -3.65226L202.13 -3.65238L202.13 -2.65238L202.63 -2.65226L202.63 -3.65226ZM204.624 -2.65176L205.124 -2.65164L205.124 -3.65164L204.624 -3.65176L204.624 -2.65176ZM211.605 -3.65003L211.105 -3.65015L211.105 -2.65015L211.605 -2.65003L211.605 -3.65003ZM221.577 -2.64754L222.077 -2.64742L222.077 -3.64742L221.577 -3.64754L221.577 -2.64754ZM236.536 -3.64382L236.036 -3.64395L236.036 -2.64395L236.536 -2.64382L236.536 -3.64382ZM238.53 -2.64332L239.03 -2.6432L239.03 -3.6432L238.53 -3.64332L238.53 -2.64332ZM245.511 -3.64159L245.011 -3.64171L245.011 -2.64171L245.511 -2.64159L245.511 -3.64159ZM255.483 -2.63911L255.983 -2.63898L255.983 -3.63898L255.483 -3.63911L255.483 -2.63911ZM270.442 -3.63538L269.942 -3.63551L269.941 -2.63551L270.441 -2.63538L270.442 -3.63538ZM272.436 -2.63489L272.936 -2.63476L272.936 -3.63476L272.436 -3.63489L272.436 -2.63489ZM279.417 -3.63315L278.917 -3.63327L278.917 -2.63327L279.417 -2.63315L279.417 -3.63315ZM289.389 -2.63067L289.889 -2.63054L289.889 -3.63054L289.389 -3.63067L289.389 -2.63067ZM304.348 -3.62695L303.848 -3.62707L303.847 -2.62707L304.347 -2.62695L304.348 -3.62695ZM306.342 -2.62645L306.842 -2.62632L306.842 -3.62632L306.342 -3.62645L306.342 -2.62645ZM313.323 -3.62471L312.823 -3.62484L312.822 -2.62484L313.322 -2.62471L313.323 -3.62471ZM323.295 -2.62223L323.795 -2.62211L323.795 -3.62211L323.295 -3.62223L323.295 -2.62223ZM338.254 -3.61851L337.754 -3.61863L337.753 -2.61863L338.253 -2.61851L338.254 -3.61851ZM340.248 -2.61801L340.748 -2.61789L340.748 -3.61789L340.248 -3.61801L340.248 -2.61801ZM347.229 -3.61627L346.729 -3.6164L346.728 -2.6164L347.228 -2.61627L347.229 -3.61627ZM357.201 -2.61379L357.701 -2.61367L357.701 -3.61367L357.201 -3.61379L357.201 -2.61379ZM372.159 -3.61007L371.659 -3.61019L371.659 -2.61019L372.159 -2.61007L372.159 -3.61007ZM374.154 -2.60957L374.654 -2.60945L374.654 -3.60945L374.154 -3.60957L374.154 -2.60957ZM381.135 -3.60784L380.635 -3.60796L380.634 -2.60796L381.134 -2.60784L381.135 -3.60784ZM391.107 -2.60536L391.607 -2.60523L391.607 -3.60523L391.107 -3.60536L391.107 -2.60536ZM406.065 -3.60163L405.565 -3.60176L405.565 -2.60176L406.065 -2.60163L406.065 -3.60163ZM408.06 -2.60114L408.56 -2.60101L408.56 -3.60101L408.06 -3.60114L408.06 -2.60114ZM415.04 -3.5994L414.54 -3.59952L414.54 -2.59952L415.04 -2.5994L415.04 -3.5994ZM425.013 -2.59692L425.513 -2.59679L425.513 -3.59679L425.013 -3.59692L425.013 -2.59692ZM439.971 -3.59319L439.471 -3.59332L439.471 -2.59332L439.971 -2.59319L439.971 -3.59319ZM441.965 -2.5927L442.465 -2.59257L442.466 -3.59257L441.966 -3.5927L441.965 -2.5927ZM448.946 -3.59096L448.446 -3.59109L448.446 -2.59109L448.946 -2.59096L448.946 -3.59096ZM458.918 -2.58848L459.418 -2.58836L459.419 -3.58836L458.919 -3.58848L458.918 -2.58848ZM473.877 -3.58476L473.377 -3.58488L473.377 -2.58488L473.877 -2.58476L473.877 -3.58476ZM475.871 -2.58426L476.371 -2.58414L476.372 -3.58414L475.872 -3.58426L475.871 -2.58426ZM482.852 -3.58252L482.352 -3.58265L482.352 -2.58265L482.852 -2.58252L482.852 -3.58252ZM492.824 -2.58004L493.324 -2.57992L493.325 -3.57992L492.825 -3.58004L492.824 -2.58004ZM507.783 -3.57632L507.283 -3.57644L507.283 -2.57644L507.783 -2.57632L507.783 -3.57632ZM509.777 -2.57582L510.277 -2.5757L510.278 -3.5757L509.778 -3.57582L509.777 -2.57582ZM516.758 -3.57409L516.258 -3.57421L516.258 -2.57421L516.758 -2.57409L516.758 -3.57409ZM526.73 -2.5716L527.23 -2.57148L527.231 -3.57148L526.731 -3.5716L526.73 -2.5716ZM541.689 -3.56788L541.189 -3.56801L541.189 -2.56801L541.689 -2.56788L541.689 -3.56788ZM543.683 -2.56739L544.183 -2.56726L544.184 -3.56726L543.684 -3.56739L543.683 -2.56739ZM550.664 -3.56565L550.164 -3.56577L550.164 -2.56577L550.664 -2.56565L550.664 -3.56565ZM560.636 -2.56317L561.136 -2.56304L561.137 -3.56304L560.637 -3.56317L560.636 -2.56317ZM575.595 -3.55944L575.095 -3.55957L575.095 -2.55957L575.595 -2.55944L575.595 -3.55944ZM577.589 -2.55895L578.089 -2.55882L578.089 -3.55882L577.589 -3.55895L577.589 -2.55895ZM584.57 -3.55721L584.07 -3.55734L584.07 -2.55734L584.57 -2.55721L584.57 -3.55721ZM594.542 -2.55473L595.042 -2.5546L595.042 -3.5546L594.542 -3.55473L594.542 -2.55473ZM609.501 -3.55101L609.001 -3.55113L609.001 -2.55113L609.501 -2.55101L609.501 -3.55101ZM611.495 -2.55051L611.995 -2.55039L611.995 -3.55039L611.495 -3.55051L611.495 -2.55051ZM618.476 -3.54877L617.976 -3.5489L617.976 -2.5489L618.476 -2.54877L618.476 -3.54877ZM628.448 -2.54629L628.948 -2.54617L628.948 -3.54617L628.448 -3.54629L628.448 -2.54629ZM643.407 -3.54257L642.907 -3.54269L642.907 -2.54269L643.407 -2.54257L643.407 -3.54257ZM645.401 -2.54207L645.901 -2.54195L645.901 -3.54195L645.401 -3.54207L645.401 -2.54207ZM652.382 -3.54034L651.882 -3.54046L651.882 -2.54046L652.382 -2.54034L652.382 -3.54034ZM662.354 -2.53785L662.854 -2.53773L662.854 -3.53773L662.354 -3.53785L662.354 -2.53785ZM677.313 -3.53413L676.813 -3.53426L676.813 -2.53426L677.313 -2.53413L677.313 -3.53413ZM679.307 -2.53363L679.807 -2.53351L679.807 -3.53351L679.307 -3.53363L679.307 -2.53363ZM686.288 -3.5319L685.788 -3.53202L685.788 -2.53202L686.288 -2.5319L686.288 -3.5319ZM696.26 -2.52942L696.76 -2.52929L696.76 -3.52929L696.26 -3.52942L696.26 -2.52942ZM711.219 -3.52569L710.719 -3.52582L710.719 -2.52582L711.219 -2.52569L711.219 -3.52569ZM713.213 -2.5252L713.713 -2.52507L713.713 -3.52507L713.213 -3.5252L713.213 -2.5252ZM720.194 -3.52346L719.694 -3.52358L719.694 -2.52358L720.194 -2.52346L720.194 -3.52346ZM730.166 -2.52098L730.666 -2.52085L730.666 -3.52085L730.166 -3.52098L730.166 -2.52098ZM745.125 -3.51726L744.625 -3.51738L744.624 -2.51738L745.124 -2.51726L745.125 -3.51726ZM745.388 -2.23661L745.255 -1.75453L746.22 -1.48921L746.352 -1.97129L745.388 -2.23661ZM744.593 4.42014L744.726 3.93806L743.762 3.67273L743.629 4.15481L744.593 4.42014ZM741.116 13.2854L740.984 13.7675L741.948 14.0328L742.081 13.5507L741.116 13.2854ZM738.311 27.2466L738.444 26.7646L737.48 26.4992L737.347 26.9813L738.311 27.2466ZM736.845 28.8074L736.712 29.2895L737.676 29.5548L737.809 29.0728L736.845 28.8074ZM736.05 35.4642L736.182 34.9821L735.218 34.7168L735.086 35.1989L736.05 35.4642ZM732.573 44.3295L732.44 44.8115L733.404 45.0769L733.537 44.5948L732.573 44.3295ZM729.768 58.2907L729.9 57.8086L728.936 57.5433L728.804 58.0254L729.768 58.2907ZM728.301 59.8515L728.168 60.3336L729.133 60.5989L729.265 60.1168L728.301 59.8515ZM727.506 66.5082L727.639 66.0262L726.675 65.7608L726.542 66.2429L727.506 66.5082ZM724.029 75.3735L723.897 75.8556L724.861 76.1209L724.993 75.6388L724.029 75.3735ZM721.224 89.3348L721.357 88.8527L720.393 88.5874L720.26 89.0694L721.224 89.3348ZM719.466 90.7151L719.18 91.1258L720.002 91.6962L720.287 91.2855L719.466 90.7151ZM715.985 97.4814L716.27 97.0707L715.448 96.5003L715.163 96.911L715.985 97.4814ZM709.017 105.762L708.732 106.173L709.553 106.743L709.839 106.333L709.017 105.762ZM700.619 119.61L700.905 119.199L700.083 118.629L699.798 119.039L700.619 119.61ZM698.569 120.81L698.284 121.22L699.105 121.791L699.39 121.38L698.569 120.81ZM695.088 127.576L695.373 127.165L694.552 126.595L694.266 127.005L695.088 127.576ZM688.12 135.857L687.835 136.267L688.657 136.838L688.942 136.427L688.12 135.857ZM679.722 149.704L680.008 149.293L679.186 148.723L678.901 149.134L679.722 149.704ZM677.672 150.904L677.387 151.315L678.208 151.885L678.493 151.474L677.672 150.904ZM674.191 157.67L674.476 157.26L673.655 156.689L673.37 157.1L674.191 157.67ZM667.223 165.951L666.938 166.362L667.76 166.932L668.045 166.522L667.223 165.951ZM658.826 179.799L659.111 179.388L658.289 178.817L658.004 179.228L658.826 179.799ZM656.578 180.611L656.162 180.888L656.716 181.721L657.133 181.444L656.578 180.611ZM650.519 185.846L650.935 185.569L650.381 184.737L649.965 185.014L650.519 185.846ZM640.516 191.303L640.1 191.58L640.654 192.412L641.07 192.135L640.516 191.303ZM626.897 201.569L627.314 201.292L626.759 200.46L626.343 200.737L626.897 201.569ZM624.453 201.995L624.037 202.272L624.591 203.104L625.008 202.827L624.453 201.995ZM618.394 207.23L618.81 206.953L618.256 206.12L617.84 206.397L618.394 207.23ZM608.391 212.687L607.975 212.964L608.529 213.796L608.945 213.519L608.391 212.687ZM594.772 222.953L595.189 222.676L594.634 221.843L594.218 222.121L594.772 222.953ZM592.329 223.378L591.912 223.655L592.466 224.488L592.883 224.211L592.329 223.378ZM586.269 228.613L586.685 228.336L586.131 227.504L585.715 227.781L586.269 228.613ZM576.266 234.07L575.85 234.347L576.404 235.18L576.82 234.903L576.266 234.07ZM562.647 244.337L563.064 244.059L562.51 243.227L562.093 243.504L562.647 244.337ZM560.353 244.384L559.88 244.545L560.201 245.492L560.674 245.332L560.353 244.384ZM554.292 247.493L554.766 247.333L554.445 246.386L553.971 246.546L554.292 247.493ZM544.854 249.634L544.38 249.794L544.701 250.741L545.175 250.581L544.854 249.634ZM531.499 255.213L531.972 255.052L531.651 254.105L531.178 254.266L531.499 255.213ZM529.354 254.883L528.881 255.044L529.202 255.991L529.675 255.83L529.354 254.883ZM523.293 257.992L523.767 257.831L523.446 256.884L522.972 257.045L523.293 257.992ZM513.855 260.133L513.381 260.293L513.702 261.24L514.176 261.08L513.855 260.133ZM500.5 265.712L500.973 265.551L500.652 264.604L500.179 264.764L500.5 265.712ZM498.355 265.382L497.882 265.542L498.203 266.49L498.676 266.329L498.355 265.382ZM492.294 268.491L492.768 268.33L492.447 267.383L491.973 267.543L492.294 268.491ZM482.856 270.631L482.382 270.792L482.703 271.739L483.177 271.579L482.856 270.631ZM469.501 276.21L469.974 276.05L469.653 275.103L469.18 275.263L469.501 276.21ZM467.356 275.881L466.883 276.041L467.204 276.988L467.677 276.828L467.356 275.881ZM461.295 278.989L461.769 278.829L461.448 277.882L460.974 278.042L461.295 278.989ZM451.857 281.13L451.383 281.291L451.704 282.238L452.178 282.077L451.857 281.13ZM438.502 286.709L438.975 286.549L438.654 285.602L438.181 285.762L438.502 286.709ZM436.384 286.187L435.889 286.257L436.029 287.247L436.524 287.177L436.384 286.187ZM429.698 288.141L430.194 288.071L430.054 287.081L429.559 287.151L429.698 288.141ZM419.808 288.528L419.312 288.598L419.452 289.588L419.947 289.518L419.808 288.528ZM405.321 291.584L405.816 291.514L405.676 290.524L405.181 290.594L405.321 291.584ZM403.231 290.87L402.736 290.94L402.875 291.93L403.371 291.86L403.231 290.87ZM396.545 292.824L397.04 292.754L396.9 291.764L396.405 291.834L396.545 292.824ZM386.654 293.211L386.159 293.281L386.299 294.271L386.794 294.201L386.654 293.211ZM372.167 296.267L372.662 296.197L372.522 295.207L372.027 295.277L372.167 296.267ZM370.077 295.552L369.582 295.622L369.722 296.612L370.217 296.542L370.077 295.552ZM363.391 297.507L363.886 297.437L363.746 296.446L363.251 296.516L363.391 297.507ZM353.5 297.894L353.005 297.964L353.145 298.954L353.64 298.884L353.5 297.894ZM339.013 300.95L339.508 300.88L339.369 299.89L338.874 299.96L339.013 300.95ZM336.923 300.235L336.428 300.305L336.568 301.295L337.063 301.225L336.923 300.235ZM330.237 302.189L330.732 302.119L330.593 301.129L330.098 301.199L330.237 302.189ZM320.347 302.576L319.851 302.646L319.991 303.636L320.486 303.566L320.347 302.576ZM305.86 305.632L306.355 305.562L306.215 304.572L305.72 304.642L305.86 305.632ZM303.77 304.918L303.275 304.988L303.414 305.978L303.909 305.908L303.77 304.918ZM297.084 306.872L297.579 306.802L297.439 305.812L296.944 305.882L297.084 306.872ZM287.193 307.259L286.698 307.329L286.838 308.319L287.333 308.249L287.193 307.259ZM272.706 310.315L273.201 310.245L273.061 309.255L272.566 309.325L272.706 310.315ZM270.512 309.58L270.015 309.635L270.123 310.629L270.62 310.574L270.512 309.58ZM262.955 311.411L263.452 311.357L263.344 310.363L262.847 310.417L262.955 311.411ZM251.897 311.613L251.4 311.667L251.508 312.661L252.005 312.607L251.897 311.613ZM235.58 314.401L236.077 314.347L235.969 313.352L235.471 313.407L235.58 314.401ZM233.281 313.646L232.784 313.7L232.893 314.694L233.39 314.64L233.281 313.646ZM225.725 315.477L226.222 315.423L226.113 314.429L225.616 314.483L225.725 315.477ZM214.666 315.679L214.169 315.733L214.278 316.727L214.775 316.673L214.666 315.679ZM198.35 318.466L198.847 318.412L198.738 317.418L198.241 317.472L198.35 318.466ZM196.051 317.712L195.554 317.766L195.663 318.76L196.16 318.706L196.051 317.712ZM188.495 319.543L188.992 319.488L188.883 318.494L188.386 318.549L188.495 319.543ZM177.436 319.744L176.939 319.799L177.048 320.793L177.545 320.738L177.436 319.744ZM161.12 322.532L161.617 322.478L161.508 321.484L161.011 321.538L161.12 322.532ZM158.821 321.777L158.324 321.831L158.433 322.826L158.93 322.771L158.821 321.777ZM151.265 323.608L151.762 323.554L151.653 322.56L151.156 322.614L151.265 323.608ZM140.206 323.81L139.709 323.864L139.817 324.858L140.314 324.804L140.206 323.81ZM123.889 326.598L124.386 326.543L124.278 325.549L123.781 325.604L123.889 326.598ZM121.804 325.884L121.312 325.975L121.493 326.958L121.985 326.868L121.804 325.884ZM116.066 327.957L116.557 327.867L116.376 326.883L115.885 326.974L116.066 327.957ZM107.428 328.531L106.936 328.621L107.118 329.605L107.609 329.514L107.428 328.531ZM94.9248 331.85L95.4165 331.759L95.2355 330.776L94.7437 330.866L94.9248 331.85ZM93.0525 331.178L92.5607 331.268L92.7418 332.252L93.2335 332.161L93.0525 331.178ZM87.3141 333.251L87.8058 333.16L87.6248 332.177L87.133 332.267L87.3141 333.251ZM78.6767 333.824L78.185 333.915L78.366 334.898L78.8578 334.808L78.6767 333.824ZM66.1733 337.143L66.665 337.053L66.4839 336.069L65.9922 336.16L66.1733 337.143ZM64.3009 336.471L63.8092 336.562L63.9903 337.545L64.482 337.455L64.3009 336.471ZM58.5626 338.544L59.0543 338.454L58.8733 337.47L58.3815 337.561L58.5626 338.544ZM49.9252 339.118L49.4335 339.208L49.6145 340.192L50.1062 340.101L49.9252 339.118ZM37.4218 342.437L37.9135 342.346L37.7324 341.363L37.2407 341.453L37.4218 342.437ZM35.4155 341.6L34.9155 341.6L34.9153 342.6L35.4153 342.6L35.4155 341.6ZM27.9239 342.598L28.4239 342.598L28.4241 341.598L27.9241 341.598L27.9239 342.598ZM17.2221 341.596L16.7221 341.596L16.7219 342.596L17.2219 342.596L17.2221 341.596ZM1.16885 342.592L1.66885 342.592L1.66912 341.592L1.16912 341.592L1.16885 342.592ZM0.599049 341.103L0.599184 340.603L-0.400816 340.602L-0.400951 341.102L0.599049 341.103ZM-0.399089 334.181L-0.399223 334.681L0.600776 334.681L0.600911 334.181L-0.399089 334.181ZM0.60357 324.292L0.603705 323.792L-0.396295 323.792L-0.396429 324.292L0.60357 324.292ZM-0.39244 309.459L-0.392575 309.959L0.607425 309.96L0.60756 309.46L-0.39244 309.459ZM0.608092 307.482L0.608226 306.982L-0.391774 306.982L-0.391908 307.482L0.608092 307.482ZM-0.390047 300.56L-0.390181 301.06L0.609819 301.06L0.609953 300.56L-0.390047 300.56ZM0.612613 290.672L0.612747 290.172L-0.387253 290.171L-0.387387 290.671L0.612613 290.672ZM-0.383398 275.839L-0.383532 276.339L0.616468 276.339L0.616602 275.839L-0.383398 275.839ZM0.617134 273.861L0.617268 273.361L-0.382732 273.361L-0.382866 273.861L0.617134 273.861ZM-0.381004 266.939L-0.381139 267.439L0.618861 267.439L0.618996 266.939L-0.381004 266.939ZM0.621655 257.051L0.62179 256.551L-0.37821 256.551L-0.378345 257.051L0.621655 257.051ZM-0.374356 242.218L-0.37449 242.718L0.62551 242.718L0.625644 242.218L-0.374356 242.218ZM0.626176 240.24L0.626311 239.74L-0.373689 239.74L-0.373824 240.24L0.626176 240.24ZM-0.371962 233.318L-0.372097 233.818L0.627903 233.819L0.628038 233.319L-0.371962 233.318ZM0.630697 223.43L0.630832 222.93L-0.369168 222.93L-0.369303 223.43L0.630697 223.43ZM-0.365313 208.597L-0.365448 209.097L0.634552 209.097L0.634687 208.597L-0.365313 208.597ZM0.635219 206.62L0.635353 206.12L-0.364647 206.119L-0.364781 206.619L0.635219 206.62ZM-0.36292 199.698L-0.363054 200.198L0.636946 200.198L0.63708 199.698L-0.36292 199.698ZM0.63974 189.809L0.639874 189.309L-0.360126 189.309L-0.36026 189.809L0.63974 189.809ZM-0.356271 174.976L-0.356405 175.476L0.643594 175.477L0.643729 174.977L-0.356271 174.976ZM0.644261 172.999L0.644395 172.499L-0.355605 172.499L-0.355739 172.999L0.644261 172.999ZM-0.353877 166.077L-0.354012 166.577L0.645988 166.577L0.646123 166.077L-0.353877 166.077ZM0.648782 156.189L0.648917 155.689L-0.351083 155.688L-0.351218 156.188L0.648782 156.189ZM-0.347229 141.356L-0.347363 141.856L0.652637 141.856L0.652771 141.356L-0.347229 141.356ZM0.653303 139.378L0.653438 138.878L-0.346562 138.878L-0.346697 139.378L0.653303 139.378ZM-0.344835 132.456L-0.34497 132.956L0.65503 132.956L0.655165 132.456L-0.344835 132.456ZM0.657824 122.568L0.657959 122.068L-0.342041 122.068L-0.342176 122.568L0.657824 122.568ZM-0.338186 107.735L-0.338321 108.235L0.661679 108.235L0.661814 107.735L-0.338186 107.735ZM0.662346 105.757L0.66248 105.257L-0.33752 105.257L-0.337654 105.757L0.662346 105.757ZM-0.335793 98.8353L-0.335927 99.3353L0.664073 99.3356L0.664207 98.8356L-0.335793 98.8353ZM0.666867 88.9471L0.667001 88.4471L-0.332999 88.4469L-0.333133 88.9469L0.666867 88.9471ZM-0.329144 74.1142L-0.329278 74.6142L0.670721 74.6144L0.670856 74.1144L-0.329144 74.1142ZM0.671388 72.1367L0.671522 71.6367L-0.328478 71.6365L-0.328612 72.1365L0.671388 72.1367ZM-0.32675 65.2146L-0.326885 65.7146L0.673115 65.7148L0.673249 65.2148L-0.32675 65.2146ZM0.675909 55.3264L0.676043 54.8264L-0.323956 54.8261L-0.324091 55.3261L0.675909 55.3264ZM-0.320102 40.4934L-0.320236 40.9934L0.679764 40.9937L0.679898 40.4937L-0.320102 40.4934ZM0.68043 38.516L0.680565 38.016L-0.319435 38.0158L-0.31957 38.5158L0.68043 38.516ZM-0.317708 31.5938L-0.317843 32.0938L0.682157 32.0941L0.682292 31.5941L-0.317708 31.5938ZM0.684951 21.7056L0.685086 21.2056L-0.314914 21.2054L-0.315049 21.7054L0.684951 21.7056ZM-0.311059 6.87271L-0.311194 7.37271L0.688806 7.37296L0.688941 6.87296L-0.311059 6.87271ZM0.689206 5.88417L0.689278 5.61692L-0.310722 5.61667L-0.310793 5.88392L0.689206 5.88417ZM0.689782 3.74613L0.6905 1.07358L-0.3095 1.07333L-0.310218 3.74588L0.689782 3.74613ZM0.691578 -2.93526L0.69165 -3.20251L-0.30835 -3.20276L-0.308421 -2.93551L0.691578 -2.93526ZM0.191516 -2.70264L1.18875 -2.70239L1.18902 -3.70239L0.191785 -3.70264L0.191516 -2.70264ZM8.16937 -2.70065L18.1417 -2.69817L18.142 -3.69817L8.16964 -3.70065L8.16937 -2.70065ZM33.1002 -2.69445L35.0946 -2.69395L35.0949 -3.69395L33.1005 -3.69445L33.1002 -2.69445ZM42.0753 -2.69221L52.0476 -2.68973L52.0479 -3.68973L42.0755 -3.69221L42.0753 -2.69221ZM67.0061 -2.68601L69.0005 -2.68551L69.0008 -3.68551L67.0063 -3.68601L67.0061 -2.68601ZM75.9812 -2.68378L85.9535 -2.68129L85.9538 -3.68129L75.9814 -3.68378L75.9812 -2.68378ZM100.912 -2.67757L102.906 -2.67708L102.907 -3.67708L100.912 -3.67757L100.912 -2.67757ZM109.887 -2.67534L119.859 -2.67286L119.86 -3.67286L109.887 -3.67534L109.887 -2.67534ZM134.818 -2.66913L136.812 -2.66864L136.813 -3.66864L134.818 -3.66913L134.818 -2.66913ZM143.793 -2.6669L153.765 -2.66442L153.766 -3.66442L143.793 -3.6669L143.793 -2.6669ZM168.724 -2.6607L170.718 -2.6602L170.719 -3.6602L168.724 -3.6607L168.724 -2.6607ZM177.699 -2.65846L187.671 -2.65598L187.671 -3.65598L177.699 -3.65846L177.699 -2.65846ZM202.63 -2.65226L204.624 -2.65176L204.624 -3.65176L202.63 -3.65226L202.63 -2.65226ZM211.605 -2.65003L221.577 -2.64754L221.577 -3.64754L211.605 -3.65003L211.605 -2.65003ZM236.536 -2.64382L238.53 -2.64332L238.53 -3.64332L236.536 -3.64382L236.536 -2.64382ZM245.511 -2.64159L255.483 -2.63911L255.483 -3.63911L245.511 -3.64159L245.511 -2.64159ZM270.441 -2.63538L272.436 -2.63489L272.436 -3.63489L270.442 -3.63538L270.441 -2.63538ZM279.417 -2.63315L289.389 -2.63067L289.389 -3.63067L279.417 -3.63315L279.417 -2.63315ZM304.347 -2.62695L306.342 -2.62645L306.342 -3.62645L304.348 -3.62695L304.347 -2.62695ZM313.322 -2.62471L323.295 -2.62223L323.295 -3.62223L313.323 -3.62471L313.322 -2.62471ZM338.253 -2.61851L340.248 -2.61801L340.248 -3.61801L338.254 -3.61851L338.253 -2.61851ZM347.228 -2.61627L357.201 -2.61379L357.201 -3.61379L347.229 -3.61627L347.228 -2.61627ZM372.159 -2.61007L374.154 -2.60957L374.154 -3.60957L372.159 -3.61007L372.159 -2.61007ZM381.134 -2.60784L391.107 -2.60536L391.107 -3.60536L381.135 -3.60784L381.134 -2.60784ZM406.065 -2.60163L408.06 -2.60114L408.06 -3.60114L406.065 -3.60163L406.065 -2.60163ZM415.04 -2.5994L425.013 -2.59692L425.013 -3.59692L415.04 -3.5994L415.04 -2.5994ZM439.971 -2.59319L441.965 -2.5927L441.966 -3.5927L439.971 -3.59319L439.971 -2.59319ZM448.946 -2.59096L458.918 -2.58848L458.919 -3.58848L448.946 -3.59096L448.946 -2.59096ZM473.877 -2.58476L475.871 -2.58426L475.872 -3.58426L473.877 -3.58476L473.877 -2.58476ZM482.852 -2.58252L492.824 -2.58004L492.825 -3.58004L482.852 -3.58252L482.852 -2.58252ZM507.783 -2.57632L509.777 -2.57582L509.778 -3.57582L507.783 -3.57632L507.783 -2.57632ZM516.758 -2.57409L526.73 -2.5716L526.731 -3.5716L516.758 -3.57409L516.758 -2.57409ZM541.689 -2.56788L543.683 -2.56739L543.684 -3.56739L541.689 -3.56788L541.689 -2.56788ZM550.664 -2.56565L560.636 -2.56317L560.637 -3.56317L550.664 -3.56565L550.664 -2.56565ZM575.595 -2.55944L577.589 -2.55895L577.589 -3.55895L575.595 -3.55944L575.595 -2.55944ZM584.57 -2.55721L594.542 -2.55473L594.542 -3.55473L584.57 -3.55721L584.57 -2.55721ZM609.501 -2.55101L611.495 -2.55051L611.495 -3.55051L609.501 -3.55101L609.501 -2.55101ZM618.476 -2.54877L628.448 -2.54629L628.448 -3.54629L618.476 -3.54877L618.476 -2.54877ZM643.407 -2.54257L645.401 -2.54207L645.401 -3.54207L643.407 -3.54257L643.407 -2.54257ZM652.382 -2.54034L662.354 -2.53785L662.354 -3.53785L652.382 -3.54034L652.382 -2.54034ZM677.313 -2.53413L679.307 -2.53363L679.307 -3.53363L677.313 -3.53413L677.313 -2.53413ZM686.288 -2.5319L696.26 -2.52942L696.26 -3.52942L686.288 -3.5319L686.288 -2.5319ZM711.219 -2.52569L713.213 -2.5252L713.213 -3.5252L711.219 -3.52569L711.219 -2.52569ZM720.194 -2.52346L730.166 -2.52098L730.166 -3.52098L720.194 -3.52346L720.194 -2.52346ZM745.124 -2.51726L746.121 -2.51701L746.122 -3.51701L745.125 -3.51726L745.124 -2.51726ZM745.639 -3.14967L745.388 -2.23661L746.352 -1.97129L746.604 -2.88435L745.639 -3.14967ZM743.629 4.15481L741.116 13.2854L742.081 13.5507L744.593 4.42014L743.629 4.15481ZM737.347 26.9813L736.845 28.8074L737.809 29.0728L738.311 27.2466L737.347 26.9813ZM735.086 35.1989L732.573 44.3295L733.537 44.5948L736.05 35.4642L735.086 35.1989ZM728.804 58.0254L728.301 59.8515L729.265 60.1168L729.768 58.2907L728.804 58.0254ZM726.542 66.2429L724.029 75.3735L724.993 75.6388L727.506 66.5082L726.542 66.2429ZM720.26 89.0694L720.009 89.9825L720.973 90.2478L721.224 89.3348L720.26 89.0694ZM720.08 89.83L719.466 90.7151L720.287 91.2855L720.902 90.4003L720.08 89.83ZM715.163 96.911L709.017 105.762L709.839 106.333L715.985 97.4814L715.163 96.911ZM699.798 119.039L698.569 120.81L699.39 121.38L700.619 119.61L699.798 119.039ZM694.266 127.005L688.12 135.857L688.942 136.427L695.088 127.576L694.266 127.005ZM678.901 149.134L677.672 150.904L678.493 151.474L679.722 149.704L678.901 149.134ZM673.37 157.1L667.223 165.951L668.045 166.522L674.191 157.67L673.37 157.1ZM658.004 179.228L657.39 180.113L658.211 180.684L658.826 179.799L658.004 179.228ZM657.523 179.982L656.578 180.611L657.133 181.444L658.077 180.815L657.523 179.982ZM649.965 185.014L640.516 191.303L641.07 192.135L650.519 185.846L649.965 185.014ZM626.343 200.737L624.453 201.995L625.008 202.827L626.897 201.569L626.343 200.737ZM617.84 206.397L608.391 212.687L608.945 213.519L618.394 207.23L617.84 206.397ZM594.218 222.121L592.329 223.378L592.883 224.211L594.772 222.953L594.218 222.121ZM585.715 227.781L576.266 234.07L576.82 234.903L586.269 228.613L585.715 227.781ZM562.093 243.504L561.148 244.133L561.703 244.965L562.647 244.337L562.093 243.504ZM561.265 244.076L560.353 244.384L560.674 245.332L561.586 245.023L561.265 244.076ZM553.971 246.546L544.854 249.634L545.175 250.581L554.292 247.493L553.971 246.546ZM531.178 254.266L529.354 254.883L529.675 255.83L531.499 255.213L531.178 254.266ZM522.972 257.045L513.855 260.133L514.176 261.08L523.293 257.992L522.972 257.045ZM500.179 264.764L498.355 265.382L498.676 266.329L500.5 265.712L500.179 264.764ZM491.973 267.543L482.856 270.631L483.177 271.579L492.294 268.491L491.973 267.543ZM469.18 275.263L467.356 275.881L467.677 276.828L469.501 276.21L469.18 275.263ZM460.974 278.042L451.857 281.13L452.178 282.077L461.295 278.989L460.974 278.042ZM438.181 285.762L437.269 286.071L437.59 287.018L438.502 286.709L438.181 285.762ZM437.36 286.049L436.384 286.187L436.524 287.177L437.499 287.039L437.36 286.049ZM429.559 287.151L419.808 288.528L419.947 289.518L429.698 288.141L429.559 287.151ZM405.181 290.594L403.231 290.87L403.371 291.86L405.321 291.584L405.181 290.594ZM396.405 291.834L386.654 293.211L386.794 294.201L396.545 292.824L396.405 291.834ZM372.027 295.277L370.077 295.552L370.217 296.542L372.167 296.267L372.027 295.277ZM363.251 296.516L353.5 297.894L353.64 298.884L363.391 297.507L363.251 296.516ZM338.874 299.96L336.923 300.235L337.063 301.225L339.013 300.95L338.874 299.96ZM330.098 301.199L320.347 302.576L320.486 303.566L330.237 302.189L330.098 301.199ZM305.72 304.642L303.77 304.918L303.909 305.908L305.86 305.632L305.72 304.642ZM296.944 305.882L287.193 307.259L287.333 308.249L297.084 306.872L296.944 305.882ZM272.566 309.325L271.591 309.463L271.731 310.453L272.706 310.315L272.566 309.325ZM271.607 309.461L270.512 309.58L270.62 310.574L271.715 310.455L271.607 309.461ZM262.847 310.417L251.897 311.613L252.005 312.607L262.955 311.411L262.847 310.417ZM235.471 313.407L233.281 313.646L233.39 314.64L235.58 314.401L235.471 313.407ZM225.616 314.483L214.666 315.679L214.775 316.673L225.725 315.477L225.616 314.483ZM198.241 317.472L196.051 317.712L196.16 318.706L198.35 318.466L198.241 317.472ZM188.386 318.549L177.436 319.744L177.545 320.738L188.495 319.543L188.386 318.549ZM161.011 321.538L158.821 321.777L158.93 322.771L161.12 322.532L161.011 321.538ZM151.156 322.614L140.206 323.81L140.314 324.804L151.265 323.608L151.156 322.614ZM123.781 325.604L122.686 325.723L122.794 326.717L123.889 326.598L123.781 325.604ZM122.65 325.729L121.804 325.884L121.985 326.868L122.831 326.712L122.65 325.729ZM115.885 326.974L107.428 328.531L107.609 329.514L116.066 327.957L115.885 326.974ZM94.7437 330.866L93.0525 331.178L93.2335 332.161L94.9248 331.85L94.7437 330.866ZM87.133 332.267L78.6767 333.824L78.8578 334.808L87.3141 333.251L87.133 332.267ZM65.9922 336.16L64.3009 336.471L64.482 337.455L66.1733 337.143L65.9922 336.16ZM58.3815 337.561L49.9252 339.118L50.1062 340.101L58.5626 338.544L58.3815 337.561ZM37.2407 341.453L36.3951 341.609L36.5761 342.592L37.4218 342.437L37.2407 341.453ZM36.4857 341.6L35.4155 341.6L35.4153 342.6L36.4855 342.6L36.4857 341.6ZM27.9241 341.598L17.2221 341.596L17.2219 342.596L27.9239 342.598L27.9241 341.598ZM1.16912 341.592L0.0989179 341.591L0.0986489 342.591L1.16885 342.592L1.16912 341.592ZM0.598783 342.092L0.599049 341.103L-0.400951 341.102L-0.401217 342.091L0.598783 342.092ZM0.600911 334.181L0.60357 324.292L-0.396429 324.292L-0.399089 334.181L0.600911 334.181ZM0.60756 309.46L0.608092 307.482L-0.391908 307.482L-0.39244 309.459L0.60756 309.46ZM0.609953 300.56L0.612613 290.672L-0.387387 290.671L-0.390047 300.56L0.609953 300.56ZM0.616602 275.839L0.617134 273.861L-0.382866 273.861L-0.383398 275.839L0.616602 275.839ZM0.618996 266.939L0.621655 257.051L-0.378345 257.051L-0.381004 266.939L0.618996 266.939ZM0.625644 242.218L0.626176 240.24L-0.373824 240.24L-0.374356 242.218L0.625644 242.218ZM0.628038 233.319L0.630697 223.43L-0.369303 223.43L-0.371962 233.318L0.628038 233.319ZM0.634687 208.597L0.635219 206.62L-0.364781 206.619L-0.365313 208.597L0.634687 208.597ZM0.63708 199.698L0.63974 189.809L-0.36026 189.809L-0.36292 199.698L0.63708 199.698ZM0.643729 174.977L0.644261 172.999L-0.355739 172.999L-0.356271 174.976L0.643729 174.977ZM0.646123 166.077L0.648782 156.189L-0.351218 156.188L-0.353877 166.077L0.646123 166.077ZM0.652771 141.356L0.653303 139.378L-0.346697 139.378L-0.347229 141.356L0.652771 141.356ZM0.655165 132.456L0.657824 122.568L-0.342176 122.568L-0.344835 132.456L0.655165 132.456ZM0.661814 107.735L0.662346 105.757L-0.337654 105.757L-0.338186 107.735L0.661814 107.735ZM0.664207 98.8356L0.666867 88.9471L-0.333133 88.9469L-0.335793 98.8353L0.664207 98.8356ZM0.670856 74.1144L0.671388 72.1367L-0.328612 72.1365L-0.329144 74.1142L0.670856 74.1144ZM0.673249 65.2148L0.675909 55.3264L-0.324091 55.3261L-0.32675 65.2146L0.673249 65.2148ZM0.679898 40.4937L0.68043 38.516L-0.31957 38.5158L-0.320102 40.4934L0.679898 40.4937ZM0.682292 31.5941L0.684951 21.7056L-0.315049 21.7054L-0.317708 31.5938L0.682292 31.5941ZM0.688941 6.87296L0.689206 5.88417L-0.310793 5.88392L-0.311059 6.87271L0.688941 6.87296Z" fill="black"/>
<path d="M3.72907 710.17L267.415 710.956L282.153 666.721L282.113 605.04L267.298 529.707L246.676 472.363L222.218 409.331L188.079 354.189L3.38454 177L3.72907 710.17Z" fill="#D9FFCC" stroke="black" stroke-linecap="square" stroke-dasharray="2 7 10 15"/>
<path d="M1.52173 710.464L171.645 710.972L181.177 675.942L181.186 627.105L171.669 567.467L158.396 522.074L142.651 472.178L120.657 428.534L1.59466 288.325L1.52173 710.464Z" fill="#B5FF9B" stroke="black" stroke-linecap="square" stroke-dasharray="2 7 10 15"/>
<path d="M-10 -5H481.773V50.7755L448.243 104.752L387.57 155.13L315.72 185.716L231.097 194.712L170.423 202.809L109.75 210.905H41.0933L-10 194.712V-5Z" fill="#B5FF9B" stroke="black" stroke-linecap="square" stroke-linejoin="round" stroke-dasharray="2 7 10 15"/>
<path d="M1519.32 709.471L755.847 709.803L755.815 632.393L807.838 557.457L902.004 487.496L1013.53 444.997L1144.91 432.454L1239.1 421.176L1333.29 409.898L1439.88 409.852L1519.21 432.291L1519.32 709.471Z" fill="#B5FF9B" stroke="black" stroke-linecap="round" stroke-linejoin="bevel" stroke-dasharray="2 10 15 25"/>
<path d="M1523.7 -11.6345L1299.2 -11.661L1286.73 19.7434L1286.87 63.4917L1299.61 116.893L1317.26 157.523L1338.19 202.18L1367.35 241.222L1524.89 366.523L1523.7 -11.6345Z" fill="#D9FFCC" stroke="black" stroke-linecap="square" stroke-dasharray="2 7 10 15"/>
<path d="M1525.58 -11.848L1380.74 -11.8651L1372.68 12.9997L1372.76 47.6378L1380.96 89.9182L1392.34 122.087L1405.83 157.444L1424.63 188.356L1526.23 287.561L1525.58 -11.848Z" fill="#B5FF9B" stroke="black" stroke-linecap="square" stroke-dasharray="2 7 10 15"/>
<g clip-path="url(#clip0_113_10)">
<path d="M1437.11 181.134C1441.76 181.134 1445.52 177.654 1445.52 173.36C1445.52 169.066 1441.76 165.585 1437.11 165.585C1432.47 165.585 1428.7 169.066 1428.7 173.36C1428.7 177.654 1432.47 181.134 1437.11 181.134Z" fill="#F2F2F2"/>
<path d="M1048.01 183.049C1047.33 183.493 1046.54 183.792 1045.72 183.927C1044.9 184.061 1044.05 184.027 1043.24 183.826C1042.44 183.626 1041.69 183.264 1041.05 182.767C1040.41 182.269 1039.89 181.648 1039.54 180.947L1019.32 182.84L1024.22 174.187L1042.67 173.716C1043.98 173.247 1045.43 173.24 1046.75 173.695C1048.07 174.151 1049.16 175.038 1049.82 176.188C1050.48 177.339 1050.66 178.673 1050.33 179.937C1049.99 181.201 1049.17 182.309 1048.01 183.049Z" fill="#FFB6B6"/>
<path d="M989.659 191.565L945.101 174.493C941.571 173.136 938.766 170.54 937.304 167.274C935.841 164.008 935.84 160.339 937.299 157.072C938.11 155.264 939.341 153.643 940.905 152.325C942.469 151.006 944.328 150.022 946.349 149.442C948.371 148.863 950.506 148.701 952.603 148.97C954.699 149.239 956.706 149.932 958.481 150.998L994.383 172.579L1031.75 170.829L1034.54 181.587L989.659 191.565Z" fill="#817AF7"/>
<path d="M981.451 375.091H988.585L991.979 349.648L981.449 349.649L981.451 375.091Z" fill="#FFB6B6"/>
<path d="M979.035 371.837L990.312 371.214V375.682L1001.03 382.528C1001.56 382.866 1001.96 383.352 1002.17 383.915C1002.38 384.477 1002.39 385.087 1002.2 385.655C1002.01 386.223 1001.63 386.72 1001.11 387.072C1000.59 387.425 999.963 387.615 999.319 387.615H985.893L983.578 383.196L982.675 387.615H977.613L979.035 371.837Z" fill="#2F2E41"/>
<path d="M935.551 375.091H942.685L946.079 349.648L935.549 349.649L935.551 375.091Z" fill="#FFB6B6"/>
<path d="M933.134 371.837L944.412 371.214V375.682L955.134 382.528C955.664 382.866 956.063 383.352 956.272 383.915C956.482 384.477 956.492 385.087 956.301 385.655C956.109 386.223 955.726 386.72 955.208 387.072C954.689 387.425 954.063 387.615 953.419 387.615H939.993L937.678 383.196L936.775 387.615H931.712L933.134 371.837Z" fill="#2F2E41"/>
<path d="M971.615 234.388L999.429 285.408C1000.95 288.195 1001.42 291.374 1000.77 294.438C1000.2 297.056 999.336 299.611 998.181 302.058L994.449 343L991.104 355.843L979.073 356.791C979.073 356.791 980.005 346.026 976.745 330.931C973.485 315.837 979.073 293.852 979.073 293.852C979.073 293.852 968.821 278.339 957.165 270.576C945.509 262.813 971.615 234.388 971.615 234.388Z" fill="#2F2E41"/>
<path d="M941.783 211.327C941.783 211.327 936.013 220.782 931.751 225.872C927.813 230.48 925.906 236.296 926.414 242.151C926.828 246.337 928.42 250.852 932.462 254.429C932.462 254.429 935.257 260.894 933.859 264.344V294.959C933.859 294.959 926.378 331.106 932.905 341.883L935.722 366.073C935.722 366.073 945.613 368.639 946.079 364.333C946.079 364.333 947.372 354.871 947.87 351.851L948.245 320.914C948.322 316.894 949.671 312.983 952.126 309.665C954.067 307.027 956.007 302.931 956.266 297.106L971.615 234.388L975.033 212.479L941.783 211.327Z" fill="#2F2E41"/>
<path d="M933.192 177.632L939.158 205.212L926.088 233.388L974.918 215.984L975.581 214.321L977.196 208.657L975.282 191.021C975.954 189.726 985.524 181.551 975.515 167.178L964.704 143.715L944.452 143.43L944.368 143.508C939.607 147.903 936.095 153.318 934.145 159.272C932.195 165.226 931.868 171.533 933.192 177.632Z" fill="#817AF7"/>
<path d="M962.889 258.698C962.222 258.232 961.673 257.636 961.282 256.953C960.891 256.27 960.667 255.515 960.625 254.743C960.583 253.971 960.725 253.2 961.04 252.484C961.356 251.768 961.837 251.125 962.451 250.599L954.291 233.388L964.701 235.039L970.854 251.13C971.74 252.141 972.194 253.418 972.13 254.718C972.066 256.019 971.489 257.252 970.507 258.185C969.525 259.118 968.208 259.685 966.803 259.78C965.399 259.874 964.007 259.49 962.889 258.698Z" fill="#FFB6B6"/>
<path d="M936.2 209.971L940.085 165.521C940.397 161.998 942.208 158.734 945.12 156.444C948.033 154.154 951.809 153.025 955.62 153.306C957.73 153.464 959.776 154.049 961.614 155.02C963.451 155.991 965.035 157.325 966.253 158.925C967.471 160.526 968.292 162.355 968.659 164.282C969.027 166.21 968.93 168.188 968.378 170.077L957.193 208.296L970.47 240.633L960.257 246.399L936.2 209.971Z" fill="#817AF7"/>
<path d="M920.918 144.847L970.349 135.503C971.71 131.305 974.318 127.451 967.119 120.895C966.003 115.851 962.814 111.404 958.223 108.49C953.632 105.576 947.998 104.423 942.506 105.274C931.16 104.34 924.786 111.796 924.819 121.803L920.918 144.847Z" fill="#2F2E41"/>
<path d="M949.742 138.534C959.022 138.534 966.545 131.579 966.545 122.999C966.545 114.419 959.022 107.464 949.742 107.464C940.463 107.464 932.94 114.419 932.94 122.999C932.94 131.579 940.463 138.534 949.742 138.534Z" fill="#FFB8B8"/>
<path d="M937.074 110.003C939.342 106.863 942.859 104.68 946.86 103.928L950.029 103.329C954.063 102.567 958.259 103.317 961.694 105.415C965.13 107.513 967.523 110.787 968.348 114.516V114.517C966.071 117.258 952.572 119.335 944.525 120.241C946.779 127.758 955.442 133.927 954.505 138.498L922.818 144.488L922.17 141.558C916.611 129.198 924.366 116.546 937.074 110.003Z" fill="#2F2E41"/>
<path d="M920.781 145.683L970.212 136.339C971.573 132.141 974.181 128.287 966.982 121.731C965.866 116.687 962.677 112.24 958.086 109.326C953.495 106.412 947.861 105.259 942.369 106.11C931.023 105.176 924.649 112.632 924.682 122.639L920.781 145.683Z" fill="#2F2E41"/>
<path d="M949.605 139.37C958.885 139.37 966.408 132.415 966.408 123.835C966.408 115.255 958.885 108.3 949.605 108.3C940.325 108.3 932.803 115.255 932.803 123.835C932.803 132.415 940.325 139.37 949.605 139.37Z" fill="#FFB8B8"/>
<path d="M936.938 110.839C939.205 107.699 942.723 105.516 946.724 104.764L949.892 104.165C953.926 103.403 958.122 104.153 961.558 106.251C964.993 108.349 967.387 111.623 968.211 115.353V115.353C965.935 118.094 952.436 120.171 944.389 121.077C946.642 128.594 955.305 134.763 954.368 139.334L922.682 145.324L922.034 142.394C916.475 130.034 924.229 117.382 936.938 110.839Z" fill="#2F2E41"/>
<path d="M1181.17 257.643H1053.01C1049.46 257.64 1046.05 256.334 1043.54 254.012C1041.03 251.691 1039.62 248.543 1039.62 245.26V90.6109C1039.62 87.3279 1041.03 84.1803 1043.54 81.8589C1046.05 79.5374 1049.46 78.2316 1053.01 78.2279H1181.17C1184.72 78.2316 1188.12 79.5374 1190.64 81.8589C1193.15 84.1803 1194.56 87.3279 1194.56 90.6109V245.26C1194.56 248.543 1193.15 251.691 1190.64 254.012C1188.12 256.334 1184.72 257.64 1181.17 257.643Z" fill="#F0F0F0"/>
<path d="M1181.17 258.241H1053.01C1049.29 258.237 1045.72 256.868 1043.09 254.434C1040.45 252.001 1038.97 248.701 1038.97 245.26V90.611C1038.97 87.1694 1040.45 83.8699 1043.09 81.4363C1045.72 79.0028 1049.29 77.6338 1053.01 77.6299H1181.17C1184.89 77.6338 1188.46 79.0027 1191.09 81.4362C1193.72 83.8698 1195.2 87.1693 1195.21 90.611V245.26C1195.2 248.701 1193.72 252.001 1191.09 254.435C1188.46 256.868 1184.89 258.237 1181.17 258.241ZM1053.01 78.826C1049.63 78.8295 1046.39 80.0723 1044 82.2816C1041.61 84.491 1040.27 87.4865 1040.26 90.611V245.26C1040.27 248.384 1041.61 251.38 1044 253.589C1046.39 255.799 1049.63 257.041 1053.01 257.045H1181.17C1184.55 257.041 1187.79 255.799 1190.18 253.589C1192.57 251.38 1193.91 248.384 1193.92 245.26V90.611C1193.91 87.4864 1192.57 84.4909 1190.18 82.2816C1187.79 80.0722 1184.55 78.8295 1181.17 78.826H1053.01Z" fill="#817AF7"/>
<path d="M1389.37 257.643H1261.21C1257.66 257.64 1254.26 256.334 1251.75 254.012C1249.24 251.691 1247.82 248.543 1247.82 245.26V90.6109C1247.82 87.3279 1249.24 84.1803 1251.75 81.8589C1254.26 79.5374 1257.66 78.2316 1261.21 78.2279H1389.37C1392.92 78.2316 1396.33 79.5374 1398.84 81.8589C1401.35 84.1803 1402.76 87.3279 1402.77 90.6109V245.26C1402.76 248.543 1401.35 251.691 1398.84 254.012C1396.33 256.334 1392.93 257.64 1389.37 257.643Z" fill="#F0F0F0"/>
<path d="M1396.68 75.415L1396.67 75.4257C1395.43 74.2599 1393.75 73.5796 1391.99 73.5258C1390.22 73.4721 1388.5 74.049 1387.18 75.137C1385.86 76.225 1385.04 77.7407 1384.9 79.3701C1384.75 80.9996 1385.29 82.6179 1386.4 83.8897L1386.39 83.9005L1395.57 93.4178L1405.86 84.9323C1407.23 83.8071 1408.05 82.2266 1408.16 80.5385C1408.26 78.8504 1407.64 77.193 1406.42 75.9309C1405.2 74.6688 1403.49 73.9054 1401.67 73.8087C1399.84 73.7119 1398.05 74.2897 1396.68 75.415Z" fill="#D1D3D4"/>
<path d="M1074.16 175C1073.95 174.561 1073.84 174.084 1073.84 173.601C1073.84 173.119 1073.96 172.643 1074.18 172.206L1081.86 156.935C1082.62 154.569 1084.36 152.578 1086.7 151.398C1089.05 150.218 1091.8 149.945 1094.36 150.639C1096.92 151.333 1099.08 152.937 1100.36 155.1C1101.65 157.263 1101.95 159.808 1101.21 162.177L1098.64 178.907C1098.57 179.384 1098.38 179.841 1098.1 180.247C1097.82 180.653 1097.45 180.998 1097.01 181.259C1096.57 181.519 1096.07 181.689 1095.56 181.757C1095.04 181.825 1094.52 181.789 1094.02 181.652L1076.44 176.838C1075.94 176.701 1075.48 176.466 1075.08 176.149C1074.69 175.832 1074.38 175.44 1074.16 175Z" fill="#3F3D56"/>
<path d="M1157.74 167.382L1140.16 172.196C1139.66 172.333 1139.14 172.369 1138.62 172.301C1138.1 172.233 1137.61 172.063 1137.17 171.802C1136.73 171.542 1136.36 171.197 1136.08 170.791C1135.79 170.385 1135.61 169.928 1135.54 169.45L1132.97 152.721C1132.23 150.352 1132.53 147.807 1133.81 145.644C1135.1 143.481 1137.26 141.876 1139.82 141.183C1142.38 140.489 1145.13 140.762 1147.47 141.942C1149.82 143.122 1151.56 145.113 1152.32 147.479L1160 162.75C1160.22 163.187 1160.33 163.663 1160.34 164.145C1160.34 164.627 1160.23 165.105 1160.02 165.544C1159.8 165.984 1159.49 166.375 1159.09 166.692C1158.7 167.009 1158.24 167.245 1157.74 167.382Z" fill="#3F3D56"/>
<path d="M1088.6 153.744L1102.38 144.476L1124.93 138.683L1143.73 142.159L1144.83 151.761C1146.18 163.442 1145.59 175.243 1143.1 186.761L1142.64 195.638L1094.23 197.188L1089.22 189.078C1089.22 189.078 1077.94 178.652 1086.72 167.067L1088.6 153.744Z" fill="#3F3D56"/>
<path d="M1355.14 135.485V145.785L1354.05 158.367C1354.05 158.367 1353.71 169.355 1353.29 178.021C1353.04 183.29 1352.76 187.699 1352.51 188.269C1352.21 188.966 1352.28 190.87 1352.46 192.868C1352.66 195.179 1353 197.619 1353.06 198.435C1353.17 199.959 1352.29 206.504 1352.29 206.504C1352.29 206.504 1351.32 222.916 1349.9 224.226C1348.48 225.536 1349.9 229.262 1349.9 229.262C1343.26 233.79 1334.87 228.256 1334.87 228.256C1336.72 225.527 1333.78 206.898 1333.78 206.898C1333.78 206.898 1333.35 200.538 1332.48 198.829C1331.61 197.12 1331.38 186.446 1331.38 186.446V170.636C1331.38 170.636 1329.1 167.399 1328.77 165.89C1328.45 164.381 1328.77 159.046 1328.77 159.046L1326.38 151.594L1324.74 157.432C1324.74 157.432 1320.5 173.745 1319.74 175.757C1319.32 177.102 1319.48 178.543 1320.17 179.787C1320.17 179.787 1321.26 182.891 1320.17 184.315C1319.49 185.207 1318.97 186.194 1318.63 187.239C1318.63 187.239 1318.07 193.181 1317.09 195.307C1316.11 197.434 1315.24 200.054 1315.24 200.054C1315.24 200.054 1315.47 204.069 1314.49 204.976C1313.51 205.882 1313.19 210.415 1313.19 210.415C1313.19 210.415 1313.4 215.545 1312.09 217.359C1310.78 219.172 1310.78 229.443 1310.78 229.443C1308.51 230.789 1305.9 231.555 1303.2 231.661C1300.51 231.767 1297.83 231.209 1295.45 230.045C1295.45 230.045 1296.74 228.925 1295.76 223.704C1294.78 218.483 1296.46 204.268 1296.46 204.268C1296.46 204.268 1296.25 200.661 1297.33 199.047C1298.42 197.434 1296.79 194.315 1297.22 192.906C1297.66 191.496 1298.97 183.84 1298.97 183.84C1298.97 183.84 1298.42 165.012 1298.42 164.006C1298.29 162.214 1297.77 160.467 1296.88 158.87C1295.9 157.261 1296.88 145.58 1296.88 145.58C1296.88 145.58 1299.19 139.543 1298.42 138.233C1297.65 136.923 1298.94 134.607 1298.94 134.607C1298.94 134.607 1297.74 131.887 1298.94 131.384C1300.13 130.881 1300.35 128.869 1300.35 128.869L1301.18 119.101C1301.18 119.101 1301.5 114.668 1302.49 114.469C1303.49 114.269 1303.05 112.561 1304.03 111.35C1304.51 110.532 1304.84 109.647 1305.01 108.73C1305.15 108.17 1305.28 107.586 1305.38 107.026C1305.69 105.508 1305.88 104.198 1305.88 104.198C1312.31 109.134 1346.1 105.674 1346.14 105.674C1348.28 106.106 1350.84 112.992 1352.68 118.997C1354.32 124.362 1355.15 129.91 1355.14 135.485Z" fill="#3F3D56"/>
<path d="M1008.35 388.797H1027.12C1027.4 388.331 1027.66 387.852 1027.9 387.368C1030.06 383.092 1030.97 378.319 1031.85 373.643L1033.26 366.047C1028.73 369.091 1024.21 372.134 1019.68 375.174C1018.21 376.166 1016.7 377.201 1015.29 378.319C1012.3 380.658 1009.73 383.361 1008.72 386.794C1008.67 386.985 1008.62 387.176 1008.58 387.368C1008.47 387.84 1008.4 388.317 1008.35 388.797Z" fill="#F0F0F0"/>
<path d="M1005.72 387.368C1005.72 387.398 1005.72 387.428 1005.73 387.458C1005.79 387.915 1005.91 388.364 1006.08 388.797H1014.5C1014.77 388.338 1014.99 387.86 1015.18 387.368C1015.43 386.711 1015.62 386.032 1015.73 385.34C1016.01 382.994 1015.86 380.62 1015.29 378.319C1015.12 377.572 1014.95 376.818 1014.78 376.077L1013.78 371.842L1008.79 379.252C1007.12 381.734 1005.39 384.467 1005.72 387.368Z" fill="#F0F0F0"/>
<path d="M920.098 388.08C920.097 388.173 920.117 388.266 920.155 388.353C920.194 388.44 920.25 388.519 920.322 388.586C920.393 388.652 920.478 388.705 920.572 388.742C920.665 388.778 920.766 388.797 920.867 388.797H1039.43C1039.64 388.797 1039.83 388.722 1039.98 388.588C1040.12 388.454 1040.21 388.272 1040.21 388.083C1040.21 387.893 1040.12 387.711 1039.98 387.577C1039.83 387.443 1039.64 387.368 1039.43 387.368H920.867C920.663 387.368 920.468 387.443 920.324 387.577C920.179 387.71 920.098 387.891 920.098 388.08Z" fill="#CACACA"/>
<path d="M1114.82 276.783C1127.61 276.783 1137.99 267.194 1137.99 255.366C1137.99 243.538 1127.61 233.949 1114.82 233.949C1102.03 233.949 1091.66 243.538 1091.66 255.366C1091.66 267.194 1102.03 276.783 1114.82 276.783Z" fill="#817AF7"/>
<path d="M1111.66 266.512C1111.26 266.512 1110.87 266.426 1110.51 266.261C1110.15 266.095 1109.84 265.855 1109.6 265.559L1103.28 257.769C1103.08 257.518 1102.93 257.234 1102.84 256.93C1102.76 256.627 1102.74 256.311 1102.79 256.001C1102.84 255.691 1102.95 255.393 1103.12 255.124C1103.29 254.854 1103.52 254.619 1103.79 254.431C1104.07 254.243 1104.37 254.106 1104.7 254.029C1105.03 253.951 1105.37 253.934 1105.71 253.979C1106.04 254.023 1106.36 254.128 1106.66 254.288C1106.95 254.448 1107.2 254.659 1107.4 254.91L1111.54 260.006L1122.16 245.28C1122.34 245.019 1122.59 244.794 1122.87 244.619C1123.15 244.444 1123.46 244.322 1123.8 244.26C1124.13 244.198 1124.47 244.197 1124.8 244.258C1125.14 244.318 1125.45 244.439 1125.73 244.613C1126.02 244.787 1126.26 245.011 1126.45 245.271C1126.64 245.532 1126.77 245.824 1126.83 246.132C1126.9 246.439 1126.9 246.756 1126.83 247.063C1126.77 247.37 1126.63 247.663 1126.44 247.923L1113.81 265.451C1113.58 265.768 1113.27 266.03 1112.91 266.215C1112.55 266.399 1112.15 266.501 1111.73 266.512C1111.71 266.512 1111.69 266.512 1111.66 266.512Z" fill="white"/>
<path d="M1195.86 320.093C1200.5 320.093 1204.26 316.612 1204.26 312.318C1204.26 308.024 1200.5 304.543 1195.86 304.543C1191.21 304.543 1187.45 308.024 1187.45 312.318C1187.45 316.612 1191.21 320.093 1195.86 320.093Z" fill="#F2F2F2"/>
<path d="M1262.41 320.093C1267.05 320.093 1270.82 316.612 1270.82 312.318C1270.82 308.024 1267.05 304.543 1262.41 304.543C1257.76 304.543 1254 308.024 1254 312.318C1254 316.612 1257.76 320.093 1262.41 320.093Z" fill="#F2F2F2"/>
<path d="M1226.9 320.093C1231.55 320.093 1235.31 316.612 1235.31 312.318C1235.31 308.024 1231.55 304.543 1226.9 304.543C1222.26 304.543 1218.49 308.024 1218.49 312.318C1218.49 316.612 1222.26 320.093 1226.9 320.093Z" fill="#F2F2F2"/>
</g>
<path d="M116.354 112.373C112.866 112.373 109.714 111.621 106.898 110.117C104.114 108.613 101.922 106.549 100.322 103.925C98.7537 101.269 97.9697 98.2933 97.9697 94.9973C97.9697 91.7013 98.7537 88.7413 100.322 86.1173C101.922 83.4613 104.114 81.3813 106.898 79.8773C109.714 78.3733 112.866 77.6213 116.354 77.6213C119.842 77.6213 122.978 78.3733 125.762 79.8773C128.546 81.3813 130.738 83.4613 132.338 86.1173C133.938 88.7413 134.738 91.7013 134.738 94.9973C134.738 98.2933 133.938 101.269 132.338 103.925C130.738 106.549 128.546 108.613 125.762 110.117C122.978 111.621 119.842 112.373 116.354 112.373ZM116.354 105.749C118.338 105.749 120.13 105.301 121.73 104.405C123.33 103.477 124.578 102.197 125.474 100.565C126.402 98.9333 126.866 97.0773 126.866 94.9973C126.866 92.9173 126.402 91.0613 125.474 89.4293C124.578 87.7973 123.33 86.5333 121.73 85.6373C120.13 84.7093 118.338 84.2453 116.354 84.2453C114.37 84.2453 112.578 84.7093 110.978 85.6373C109.378 86.5333 108.114 87.7973 107.186 89.4293C106.29 91.0613 105.842 92.9173 105.842 94.9973C105.842 97.0773 106.29 98.9333 107.186 100.565C108.114 102.197 109.378 103.477 110.978 104.405C112.578 105.301 114.37 105.749 116.354 105.749ZM155.75 85.5893C158.95 85.5893 161.526 86.5493 163.478 88.4693C165.462 90.3893 166.454 93.2373 166.454 97.0133V111.797H158.966V98.1653C158.966 96.1173 158.518 94.5973 157.622 93.6053C156.726 92.5813 155.43 92.0693 153.734 92.0693C151.846 92.0693 150.342 92.6613 149.222 93.8453C148.102 94.9973 147.542 96.7253 147.542 99.0293V111.797H140.054V85.9733H147.206V88.9973C148.198 87.9093 149.43 87.0773 150.902 86.5013C152.374 85.8933 153.99 85.5893 155.75 85.5893ZM173.241 76.1813H180.729V111.797H173.241V76.1813ZM213.311 85.9733L201.647 113.381C200.463 116.357 198.991 118.453 197.231 119.669C195.503 120.885 193.407 121.493 190.943 121.493C189.599 121.493 188.271 121.285 186.959 120.869C185.647 120.453 184.575 119.877 183.743 119.141L186.479 113.813C187.055 114.325 187.711 114.725 188.447 115.013C189.215 115.301 189.967 115.445 190.703 115.445C191.727 115.445 192.559 115.189 193.199 114.677C193.839 114.197 194.415 113.381 194.927 112.229L195.023 111.989L183.839 85.9733H191.567L198.815 103.493L206.111 85.9733H213.311ZM237.448 84.5333H226.696V78.1973H255.976V84.5333H245.224V111.797H237.448V84.5333ZM275.328 85.5893C278.528 85.5893 281.104 86.5493 283.056 88.4693C285.04 90.3893 286.032 93.2373 286.032 97.0133V111.797H278.544V98.1653C278.544 96.1173 278.096 94.5973 277.2 93.6053C276.304 92.5813 275.008 92.0693 273.312 92.0693C271.424 92.0693 269.92 92.6613 268.8 93.8453C267.68 94.9973 267.12 96.7253 267.12 99.0293V111.797H259.632V76.1813H267.12V88.6613C268.112 87.6693 269.312 86.9173 270.72 86.4053C272.128 85.8613 273.664 85.5893 275.328 85.5893ZM318.397 98.9813C318.397 99.0773 318.349 99.7493 318.253 100.997H298.717C299.069 102.597 299.901 103.861 301.213 104.789C302.525 105.717 304.157 106.181 306.109 106.181C307.453 106.181 308.637 105.989 309.661 105.605C310.717 105.189 311.693 104.549 312.589 103.685L316.573 108.005C314.141 110.789 310.589 112.181 305.917 112.181C303.005 112.181 300.429 111.621 298.189 110.501C295.949 109.349 294.221 107.765 293.005 105.749C291.789 103.733 291.181 101.445 291.181 98.8853C291.181 96.3573 291.773 94.0853 292.957 92.0693C294.173 90.0213 295.821 88.4373 297.901 87.3173C300.013 86.1653 302.365 85.5893 304.957 85.5893C307.485 85.5893 309.773 86.1333 311.821 87.2213C313.869 88.3093 315.469 89.8773 316.621 91.9253C317.805 93.9413 318.397 96.2933 318.397 98.9813ZM305.005 91.2533C303.309 91.2533 301.885 91.7333 300.733 92.6933C299.581 93.6533 298.877 94.9653 298.621 96.6293H311.341C311.085 94.9973 310.381 93.7013 309.229 92.7413C308.077 91.7493 306.669 91.2533 305.005 91.2533ZM362.176 94.3253C364.096 94.9333 365.6 95.9573 366.688 97.3973C367.776 98.8053 368.32 100.549 368.32 102.629C368.32 105.573 367.168 107.845 364.864 109.445C362.592 111.013 359.264 111.797 354.88 111.797H337.504V78.1973H353.92C358.016 78.1973 361.152 78.9813 363.328 80.5493C365.536 82.1173 366.64 84.2453 366.64 86.9333C366.64 88.5653 366.24 90.0213 365.44 91.3013C364.672 92.5813 363.584 93.5893 362.176 94.3253ZM345.232 84.0533V91.9733H352.96C354.88 91.9733 356.336 91.6373 357.328 90.9653C358.32 90.2933 358.816 89.3013 358.816 87.9893C358.816 86.6773 358.32 85.7013 357.328 85.0613C356.336 84.3893 354.88 84.0533 352.96 84.0533H345.232ZM354.304 105.941C356.352 105.941 357.888 105.605 358.912 104.933C359.968 104.261 360.496 103.221 360.496 101.813C360.496 99.0293 358.432 97.6373 354.304 97.6373H345.232V105.941H354.304ZM398.975 98.9813C398.975 99.0773 398.927 99.7493 398.831 100.997H379.295C379.647 102.597 380.479 103.861 381.791 104.789C383.103 105.717 384.735 106.181 386.687 106.181C388.031 106.181 389.215 105.989 390.239 105.605C391.295 105.189 392.271 104.549 393.167 103.685L397.151 108.005C394.719 110.789 391.167 112.181 386.495 112.181C383.583 112.181 381.007 111.621 378.767 110.501C376.527 109.349 374.799 107.765 373.583 105.749C372.367 103.733 371.759 101.445 371.759 98.8853C371.759 96.3573 372.351 94.0853 373.535 92.0693C374.751 90.0213 376.399 88.4373 378.479 87.3173C380.591 86.1653 382.943 85.5893 385.535 85.5893C388.063 85.5893 390.351 86.1333 392.399 87.2213C394.447 88.3093 396.047 89.8773 397.199 91.9253C398.383 93.9413 398.975 96.2933 398.975 98.9813ZM385.583 91.2533C383.887 91.2533 382.463 91.7333 381.311 92.6933C380.159 93.6533 379.455 94.9653 379.199 96.6293H391.919C391.663 94.9973 390.959 93.7013 389.807 92.7413C388.655 91.7493 387.247 91.2533 385.583 91.2533ZM412.648 112.181C410.504 112.181 408.408 111.925 406.36 111.413C404.312 110.869 402.68 110.197 401.464 109.397L403.96 104.021C405.112 104.757 406.504 105.365 408.136 105.845C409.768 106.293 411.368 106.517 412.936 106.517C416.104 106.517 417.688 105.733 417.688 104.165C417.688 103.429 417.256 102.901 416.392 102.581C415.528 102.261 414.2 101.989 412.408 101.765C410.296 101.445 408.552 101.077 407.176 100.661C405.8 100.245 404.6 99.5093 403.576 98.4533C402.584 97.3973 402.088 95.8933 402.088 93.9413C402.088 92.3093 402.552 90.8693 403.48 89.6213C404.44 88.3413 405.816 87.3493 407.608 86.6453C409.432 85.9413 411.576 85.5893 414.04 85.5893C415.864 85.5893 417.672 85.7973 419.464 86.2133C421.288 86.5973 422.792 87.1413 423.976 87.8453L421.48 93.1733C419.208 91.8933 416.728 91.2533 414.04 91.2533C412.44 91.2533 411.24 91.4773 410.44 91.9253C409.64 92.3733 409.24 92.9493 409.24 93.6533C409.24 94.4533 409.672 95.0133 410.536 95.3333C411.4 95.6533 412.776 95.9573 414.664 96.2453C416.776 96.5973 418.504 96.9813 419.848 97.3973C421.192 97.7813 422.36 98.5013 423.352 99.5573C424.344 100.613 424.84 102.085 424.84 103.973C424.84 105.573 424.36 106.997 423.4 108.245C422.44 109.493 421.032 110.469 419.176 111.173C417.352 111.845 415.176 112.181 412.648 112.181ZM446.116 110.549C445.38 111.093 444.468 111.509 443.38 111.797C442.324 112.053 441.204 112.181 440.02 112.181C436.948 112.181 434.564 111.397 432.868 109.829C431.204 108.261 430.372 105.957 430.372 102.917V92.3093H426.388V86.5493H430.372V80.2613H437.86V86.5493H444.292V92.3093H437.86V102.821C437.86 103.909 438.132 104.757 438.676 105.365C439.252 105.941 440.052 106.229 441.076 106.229C442.26 106.229 443.268 105.909 444.1 105.269L446.116 110.549ZM122.786 153.469H129.89V167.101C128.066 168.477 125.954 169.533 123.554 170.269C121.154 171.005 118.738 171.373 116.306 171.373C112.818 171.373 109.682 170.637 106.898 169.165C104.114 167.661 101.922 165.597 100.322 162.973C98.7537 160.317 97.9697 157.325 97.9697 153.997C97.9697 150.669 98.7537 147.693 100.322 145.069C101.922 142.413 104.13 140.349 106.946 138.877C109.762 137.373 112.93 136.621 116.45 136.621C119.394 136.621 122.066 137.117 124.466 138.109C126.866 139.101 128.882 140.541 130.514 142.429L125.522 147.037C123.122 144.509 120.226 143.245 116.834 143.245C114.69 143.245 112.786 143.693 111.122 144.589C109.458 145.485 108.162 146.749 107.234 148.381C106.306 150.013 105.842 151.885 105.842 153.997C105.842 156.077 106.306 157.933 107.234 159.565C108.162 161.197 109.442 162.477 111.074 163.405C112.738 164.301 114.626 164.749 116.738 164.749C118.978 164.749 120.994 164.269 122.786 163.309V153.469ZM148.873 171.181C146.153 171.181 143.705 170.621 141.529 169.501C139.385 168.349 137.705 166.765 136.489 164.749C135.273 162.733 134.665 160.445 134.665 157.885C134.665 155.325 135.273 153.037 136.489 151.021C137.705 149.005 139.385 147.437 141.529 146.317C143.705 145.165 146.153 144.589 148.873 144.589C151.593 144.589 154.025 145.165 156.169 146.317C158.313 147.437 159.993 149.005 161.209 151.021C162.425 153.037 163.033 155.325 163.033 157.885C163.033 160.445 162.425 162.733 161.209 164.749C159.993 166.765 158.313 168.349 156.169 169.501C154.025 170.621 151.593 171.181 148.873 171.181ZM148.873 165.037C150.793 165.037 152.361 164.397 153.577 163.117C154.825 161.805 155.449 160.061 155.449 157.885C155.449 155.709 154.825 153.981 153.577 152.701C152.361 151.389 150.793 150.733 148.873 150.733C146.953 150.733 145.369 151.389 144.121 152.701C142.873 153.981 142.249 155.709 142.249 157.885C142.249 160.061 142.873 161.805 144.121 163.117C145.369 164.397 146.953 165.037 148.873 165.037ZM180.326 171.181C177.606 171.181 175.158 170.621 172.982 169.501C170.838 168.349 169.158 166.765 167.942 164.749C166.726 162.733 166.118 160.445 166.118 157.885C166.118 155.325 166.726 153.037 167.942 151.021C169.158 149.005 170.838 147.437 172.982 146.317C175.158 145.165 177.606 144.589 180.326 144.589C183.046 144.589 185.478 145.165 187.622 146.317C189.766 147.437 191.446 149.005 192.662 151.021C193.878 153.037 194.486 155.325 194.486 157.885C194.486 160.445 193.878 162.733 192.662 164.749C191.446 166.765 189.766 168.349 187.622 169.501C185.478 170.621 183.046 171.181 180.326 171.181ZM180.326 165.037C182.246 165.037 183.814 164.397 185.03 163.117C186.278 161.805 186.902 160.061 186.902 157.885C186.902 155.709 186.278 153.981 185.03 152.701C183.814 151.389 182.246 150.733 180.326 150.733C178.406 150.733 176.822 151.389 175.574 152.701C174.326 153.981 173.702 155.709 173.702 157.885C173.702 160.061 174.326 161.805 175.574 163.117C176.822 164.397 178.406 165.037 180.326 165.037ZM225.795 135.181V170.797H218.643V167.821C216.787 170.061 214.099 171.181 210.579 171.181C208.147 171.181 205.939 170.637 203.955 169.549C202.003 168.461 200.467 166.909 199.347 164.893C198.227 162.877 197.667 160.541 197.667 157.885C197.667 155.229 198.227 152.893 199.347 150.877C200.467 148.861 202.003 147.309 203.955 146.221C205.939 145.133 208.147 144.589 210.579 144.589C213.875 144.589 216.451 145.629 218.307 147.709V135.181H225.795ZM211.875 165.037C213.763 165.037 215.331 164.397 216.579 163.117C217.827 161.805 218.451 160.061 218.451 157.885C218.451 155.709 217.827 153.981 216.579 152.701C215.331 151.389 213.763 150.733 211.875 150.733C209.955 150.733 208.371 151.389 207.123 152.701C205.875 153.981 205.251 155.709 205.251 157.885C205.251 160.061 205.875 161.805 207.123 163.117C208.371 164.397 209.955 165.037 211.875 165.037ZM241.414 171.181C239.27 171.181 237.174 170.925 235.126 170.413C233.078 169.869 231.446 169.197 230.23 168.397L232.726 163.021C233.878 163.757 235.27 164.365 236.902 164.845C238.534 165.293 240.134 165.517 241.702 165.517C244.87 165.517 246.454 164.733 246.454 163.165C246.454 162.429 246.022 161.901 245.158 161.581C244.294 161.261 242.966 160.989 241.174 160.765C239.062 160.445 237.318 160.077 235.942 159.661C234.566 159.245 233.366 158.509 232.342 157.453C231.35 156.397 230.854 154.893 230.854 152.941C230.854 151.309 231.318 149.869 232.246 148.621C233.206 147.341 234.582 146.349 236.374 145.645C238.198 144.941 240.342 144.589 242.806 144.589C244.63 144.589 246.438 144.797 248.23 145.213C250.054 145.597 251.558 146.141 252.742 146.845L250.246 152.173C247.974 150.893 245.494 150.253 242.806 150.253C241.206 150.253 240.006 150.477 239.206 150.925C238.406 151.373 238.006 151.949 238.006 152.653C238.006 153.453 238.438 154.013 239.302 154.333C240.166 154.653 241.542 154.957 243.43 155.245C245.542 155.597 247.27 155.981 248.614 156.397C249.958 156.781 251.126 157.501 252.118 158.557C253.11 159.613 253.606 161.085 253.606 162.973C253.606 164.573 253.126 165.997 252.166 167.245C251.206 168.493 249.798 169.469 247.942 170.173C246.118 170.845 243.942 171.181 241.414 171.181ZM261.058 171.181C259.746 171.181 258.642 170.733 257.746 169.837C256.85 168.941 256.402 167.821 256.402 166.477C256.402 165.101 256.85 163.997 257.746 163.165C258.642 162.301 259.746 161.869 261.058 161.869C262.37 161.869 263.474 162.301 264.37 163.165C265.266 163.997 265.714 165.101 265.714 166.477C265.714 167.821 265.266 168.941 264.37 169.837C263.474 170.733 262.37 171.181 261.058 171.181Z" fill="black"/>
<path d="M255.813 328.768C252.272 328.768 248.837 328.299 245.509 327.36C242.224 326.379 239.579 325.12 237.573 323.584L241.093 315.776C243.013 317.184 245.296 318.315 247.941 319.168C250.587 320.021 253.232 320.448 255.877 320.448C258.821 320.448 260.997 320.021 262.405 319.168C263.813 318.272 264.517 317.099 264.517 315.648C264.517 314.581 264.091 313.707 263.237 313.024C262.427 312.299 261.36 311.723 260.037 311.296C258.757 310.869 257.008 310.4 254.789 309.888C251.376 309.077 248.581 308.267 246.405 307.456C244.229 306.645 242.352 305.344 240.773 303.552C239.237 301.76 238.469 299.371 238.469 296.384C238.469 293.781 239.173 291.435 240.581 289.344C241.989 287.211 244.101 285.525 246.917 284.288C249.776 283.051 253.253 282.432 257.349 282.432C260.208 282.432 263.003 282.773 265.733 283.456C268.464 284.139 270.853 285.12 272.901 286.4L269.701 294.272C265.563 291.925 261.424 290.752 257.285 290.752C254.384 290.752 252.229 291.221 250.821 292.16C249.456 293.099 248.773 294.336 248.773 295.872C248.773 297.408 249.563 298.56 251.141 299.328C252.763 300.053 255.216 300.779 258.501 301.504C261.915 302.315 264.709 303.125 266.885 303.936C269.061 304.747 270.917 306.027 272.453 307.776C274.032 309.525 274.821 311.893 274.821 314.88C274.821 317.44 274.096 319.787 272.645 321.92C271.237 324.011 269.104 325.675 266.245 326.912C263.387 328.149 259.909 328.768 255.813 328.768ZM302.13 293.056C306.396 293.056 309.831 294.336 312.434 296.896C315.079 299.456 316.402 303.253 316.402 308.288V328H306.418V309.824C306.418 307.093 305.82 305.067 304.626 303.744C303.431 302.379 301.703 301.696 299.442 301.696C296.924 301.696 294.919 302.485 293.426 304.064C291.932 305.6 291.186 307.904 291.186 310.976V328H281.202V280.512H291.186V297.152C292.508 295.829 294.108 294.827 295.986 294.144C297.863 293.419 299.911 293.056 302.13 293.056ZM342.211 328.512C338.584 328.512 335.32 327.765 332.419 326.272C329.56 324.736 327.32 322.624 325.699 319.936C324.077 317.248 323.267 314.197 323.267 310.784C323.267 307.371 324.077 304.32 325.699 301.632C327.32 298.944 329.56 296.853 332.419 295.36C335.32 293.824 338.584 293.056 342.211 293.056C345.837 293.056 349.08 293.824 351.939 295.36C354.797 296.853 357.037 298.944 358.659 301.632C360.28 304.32 361.091 307.371 361.091 310.784C361.091 314.197 360.28 317.248 358.659 319.936C357.037 322.624 354.797 324.736 351.939 326.272C349.08 327.765 345.837 328.512 342.211 328.512ZM342.211 320.32C344.771 320.32 346.861 319.467 348.483 317.76C350.147 316.011 350.979 313.685 350.979 310.784C350.979 307.883 350.147 305.579 348.483 303.872C346.861 302.123 344.771 301.248 342.211 301.248C339.651 301.248 337.539 302.123 335.875 303.872C334.211 305.579 333.379 307.883 333.379 310.784C333.379 313.685 334.211 316.011 335.875 317.76C337.539 319.467 339.651 320.32 342.211 320.32ZM388.116 293.056C391.316 293.056 394.218 293.803 396.82 295.296C399.466 296.747 401.535 298.816 403.028 301.504C404.522 304.149 405.268 307.243 405.268 310.784C405.268 314.325 404.522 317.44 403.028 320.128C401.535 322.773 399.466 324.843 396.82 326.336C394.218 327.787 391.316 328.512 388.116 328.512C383.722 328.512 380.266 327.125 377.748 324.352V340.416H367.764V293.568H377.3V297.536C379.775 294.549 383.38 293.056 388.116 293.056ZM386.388 320.32C388.948 320.32 391.039 319.467 392.66 317.76C394.324 316.011 395.156 313.685 395.156 310.784C395.156 307.883 394.324 305.579 392.66 303.872C391.039 302.123 388.948 301.248 386.388 301.248C383.828 301.248 381.716 302.123 380.052 303.872C378.431 305.579 377.62 307.883 377.62 310.784C377.62 313.685 378.431 316.011 380.052 317.76C381.716 319.467 383.828 320.32 386.388 320.32ZM465.213 328.768L459.837 323.776C455.57 327.104 450.578 328.768 444.861 328.768C441.618 328.768 438.695 328.256 436.093 327.232C433.49 326.165 431.442 324.693 429.949 322.816C428.498 320.939 427.773 318.827 427.773 316.48C427.773 313.707 428.541 311.275 430.077 309.184C431.655 307.051 434.173 305.024 437.629 303.104C436.007 301.44 434.834 299.861 434.109 298.368C433.383 296.832 433.021 295.253 433.021 293.632C433.021 291.456 433.597 289.536 434.749 287.872C435.901 286.208 437.522 284.928 439.613 284.032C441.746 283.093 444.199 282.624 446.973 282.624C450.855 282.624 453.97 283.563 456.317 285.44C458.663 287.275 459.837 289.771 459.837 292.928C459.837 295.232 459.133 297.28 457.725 299.072C456.359 300.864 454.141 302.592 451.069 304.256L459.261 311.872C460.242 309.824 460.989 307.499 461.501 304.896L469.501 307.392C468.647 311.36 467.282 314.752 465.405 317.568L470.653 322.432L465.213 328.768ZM446.973 289.408C445.479 289.408 444.285 289.792 443.389 290.56C442.535 291.328 442.109 292.309 442.109 293.504C442.109 294.4 442.343 295.253 442.813 296.064C443.282 296.832 444.199 297.877 445.565 299.2C447.741 298.048 449.255 297.024 450.109 296.128C450.962 295.189 451.389 294.187 451.389 293.12C451.389 292.011 451.005 291.115 450.237 290.432C449.469 289.749 448.381 289.408 446.973 289.408ZM445.565 320.96C448.679 320.96 451.474 320.085 453.949 318.336L443.133 308.224C441.127 309.376 439.698 310.507 438.845 311.616C437.991 312.725 437.565 313.984 437.565 315.392C437.565 317.056 438.29 318.4 439.741 319.424C441.191 320.448 443.133 320.96 445.565 320.96ZM530.156 319.68V328H495.468V283.2H529.324V291.52H505.772V301.248H526.572V309.312H505.772V319.68H530.156ZM559.152 328L551.6 317.44L543.792 328H532.912L546.16 310.656L533.36 293.568H544.56L551.856 303.616L559.344 293.568H569.968L557.168 310.4L570.48 328H559.152ZM595.679 293.056C598.879 293.056 601.78 293.803 604.383 295.296C607.028 296.747 609.097 298.816 610.591 301.504C612.084 304.149 612.831 307.243 612.831 310.784C612.831 314.325 612.084 317.44 610.591 320.128C609.097 322.773 607.028 324.843 604.383 326.336C601.78 327.787 598.879 328.512 595.679 328.512C591.284 328.512 587.828 327.125 585.311 324.352V340.416H575.327V293.568H584.863V297.536C587.337 294.549 590.943 293.056 595.679 293.056ZM593.951 320.32C596.511 320.32 598.601 319.467 600.223 317.76C601.887 316.011 602.719 313.685 602.719 310.784C602.719 307.883 601.887 305.579 600.223 303.872C598.601 302.123 596.511 301.248 593.951 301.248C591.391 301.248 589.279 302.123 587.615 303.872C585.993 305.579 585.183 307.883 585.183 310.784C585.183 313.685 585.993 316.011 587.615 317.76C589.279 319.467 591.391 320.32 593.951 320.32ZM619.514 280.512H629.498V328H619.514V280.512ZM655.148 328.512C651.522 328.512 648.258 327.765 645.356 326.272C642.498 324.736 640.258 322.624 638.636 319.936C637.015 317.248 636.204 314.197 636.204 310.784C636.204 307.371 637.015 304.32 638.636 301.632C640.258 298.944 642.498 296.853 645.356 295.36C648.258 293.824 651.522 293.056 655.148 293.056C658.775 293.056 662.018 293.824 664.876 295.36C667.735 296.853 669.975 298.944 671.596 301.632C673.218 304.32 674.028 307.371 674.028 310.784C674.028 314.197 673.218 317.248 671.596 319.936C669.975 322.624 667.735 324.736 664.876 326.272C662.018 327.765 658.775 328.512 655.148 328.512ZM655.148 320.32C657.708 320.32 659.799 319.467 661.42 317.76C663.084 316.011 663.916 313.685 663.916 310.784C663.916 307.883 663.084 305.579 661.42 303.872C659.799 302.123 657.708 301.248 655.148 301.248C652.588 301.248 650.476 302.123 648.812 303.872C647.148 305.579 646.316 307.883 646.316 310.784C646.316 313.685 647.148 316.011 648.812 317.76C650.476 319.467 652.588 320.32 655.148 320.32ZM690.238 298.112C691.432 296.448 693.032 295.189 695.038 294.336C697.086 293.483 699.432 293.056 702.078 293.056V302.272C700.968 302.187 700.222 302.144 699.838 302.144C696.979 302.144 694.739 302.955 693.118 304.576C691.496 306.155 690.686 308.544 690.686 311.744V328H680.702V293.568H690.238V298.112ZM741.43 310.912C741.43 311.04 741.366 311.936 741.238 313.6H715.19C715.659 315.733 716.768 317.419 718.518 318.656C720.267 319.893 722.443 320.512 725.046 320.512C726.838 320.512 728.416 320.256 729.782 319.744C731.19 319.189 732.491 318.336 733.686 317.184L738.998 322.944C735.755 326.656 731.019 328.512 724.79 328.512C720.907 328.512 717.472 327.765 714.486 326.272C711.499 324.736 709.195 322.624 707.574 319.936C705.952 317.248 705.142 314.197 705.142 310.784C705.142 307.413 705.931 304.384 707.51 301.696C709.131 298.965 711.328 296.853 714.102 295.36C716.918 293.824 720.054 293.056 723.51 293.056C726.88 293.056 729.931 293.781 732.662 295.232C735.392 296.683 737.526 298.773 739.062 301.504C740.64 304.192 741.43 307.328 741.43 310.912ZM723.574 300.608C721.312 300.608 719.414 301.248 717.878 302.528C716.342 303.808 715.403 305.557 715.062 307.776H732.022C731.68 305.6 730.742 303.872 729.206 302.592C727.67 301.269 725.792 300.608 723.574 300.608ZM751.853 328.512C750.103 328.512 748.631 327.915 747.437 326.72C746.242 325.525 745.645 324.032 745.645 322.24C745.645 320.405 746.242 318.933 747.437 317.824C748.631 316.672 750.103 316.096 751.853 316.096C753.602 316.096 755.074 316.672 756.269 317.824C757.463 318.933 758.061 320.405 758.061 322.24C758.061 324.032 757.463 325.525 756.269 326.72C755.074 327.915 753.602 328.512 751.853 328.512Z" fill="black"/>
<defs>
<clipPath id="clip0_113_10">
<rect width="531" height="387" fill="white" transform="translate(920.098 1.79724)"/>
</clipPath>
</defs>
</svg>
