<svg width="1519" height="703" viewBox="0 0 1519 703" fill="none" xmlns="http://www.w3.org/2000/svg">
<g clip-path="url(#clip0_116_14)">
<rect width="1519" height="703" fill="#B5FF9B"/>
<path d="M1517.51 699.213L1518.16 296.829L1418.91 274.462L1280.6 274.694L1111.75 297.511L983.253 329.139L842.022 366.636L718.522 418.884L322 701.218L1517.51 699.213Z" fill="#B5B0FF" stroke="black" stroke-linecap="square" stroke-dasharray="2 7 10 15"/>
<path d="M0.191895 -3.20264L0.189451 5.88405L0.0990275 342.091L36.4858 342.1L122.74 326.22L271.661 309.958L437.43 286.544L561.426 244.549L657.801 180.398L720.491 90.1151L746.122 -3.01701L0.191895 -3.20264Z" fill="#B5B0FF"/>
<path d="M0.191895 -3.20264L0.192029 -3.70264C-0.0841134 -3.70271 -0.308031 -3.4789 -0.308105 -3.20276L0.191895 -3.20264ZM0.0990275 342.091L-0.400972 342.091C-0.401047 342.367 -0.177249 342.591 0.098893 342.591L0.0990275 342.091ZM746.122 -3.01701L746.604 -2.88435C746.645 -3.03477 746.614 -3.19589 746.519 -3.32C746.425 -3.44411 746.278 -3.51697 746.122 -3.51701L746.122 -3.01701ZM122.74 326.22L122.686 325.723C122.674 325.725 122.662 325.726 122.65 325.729L122.74 326.22ZM271.661 309.958L271.715 310.455C271.721 310.454 271.726 310.454 271.731 310.453L271.661 309.958ZM437.43 286.544L437.5 287.039C437.53 287.035 437.561 287.028 437.59 287.018L437.43 286.544ZM561.426 244.549L561.586 245.023C561.627 245.009 561.667 244.99 561.703 244.965L561.426 244.549ZM657.801 180.398L658.078 180.815C658.13 180.78 658.175 180.735 658.211 180.684L657.801 180.398ZM720.491 90.1151L720.902 90.4003C720.934 90.3539 720.958 90.3023 720.973 90.2478L720.491 90.1151ZM36.4858 342.1L36.4857 342.6C36.5161 342.601 36.5465 342.598 36.5764 342.592L36.4858 342.1ZM0.689523 5.61692L0.689657 5.11692L-0.310343 5.11667L-0.310477 5.61667L0.689523 5.61692ZM-0.309974 3.74588L-0.310109 4.24588L0.689891 4.24613L0.690026 3.74613L-0.309974 3.74588ZM0.690744 1.07358L0.690879 0.573575L-0.309121 0.573327L-0.309255 1.07333L0.690744 1.07358ZM-0.308177 -2.93551L-0.308312 -2.43551L0.691688 -2.43526L0.691823 -2.93526L-0.308177 -2.93551ZM1.18899 -2.70239L1.68899 -2.70226L1.68926 -3.70226L1.18926 -3.70239L1.18899 -2.70239ZM8.16989 -3.70065L7.66989 -3.70078L7.66962 -2.70078L8.16962 -2.70065L8.16989 -3.70065ZM18.1419 -2.69817L18.6419 -2.69805L18.6422 -3.69805L18.1422 -3.69817L18.1419 -2.69817ZM33.1007 -3.69445L32.6007 -3.69457L32.6004 -2.69457L33.1004 -2.69445L33.1007 -3.69445ZM35.0949 -2.69395L35.5949 -2.69383L35.5952 -3.69383L35.0952 -3.69395L35.0949 -2.69395ZM42.0758 -3.69221L41.5758 -3.69234L41.5755 -2.69234L42.0755 -2.69221L42.0758 -3.69221ZM52.0478 -2.68973L52.5478 -2.68961L52.5481 -3.68961L52.0481 -3.68973L52.0478 -2.68973ZM67.0066 -3.68601L66.5066 -3.68613L66.5063 -2.68613L67.0063 -2.68601L67.0066 -3.68601ZM69.0008 -2.68551L69.5008 -2.68539L69.5011 -3.68539L69.0011 -3.68551L69.0008 -2.68551ZM75.9817 -3.68378L75.4817 -3.6839L75.4814 -2.6839L75.9814 -2.68378L75.9817 -3.68378ZM85.9538 -2.68129L86.4538 -2.68117L86.454 -3.68117L85.954 -3.68129L85.9538 -2.68129ZM100.913 -3.67757L100.413 -3.6777L100.412 -2.6777L100.912 -2.67757L100.913 -3.67757ZM102.907 -2.67708L103.407 -2.67695L103.407 -3.67695L102.907 -3.67708L102.907 -2.67708ZM109.888 -3.67534L109.388 -3.67546L109.387 -2.67546L109.887 -2.67534L109.888 -3.67534ZM119.86 -2.67286L120.36 -2.67273L120.36 -3.67273L119.86 -3.67286L119.86 -2.67286ZM134.818 -3.66913L134.318 -3.66926L134.318 -2.66926L134.818 -2.66913L134.818 -3.66913ZM136.813 -2.66864L137.313 -2.66851L137.313 -3.66851L136.813 -3.66864L136.813 -2.66864ZM143.793 -3.6669L143.293 -3.66703L143.293 -2.66703L143.793 -2.6669L143.793 -3.6669ZM153.766 -2.66442L154.266 -2.66429L154.266 -3.66429L153.766 -3.66442L153.766 -2.66442ZM168.724 -3.6607L168.224 -3.66082L168.224 -2.66082L168.724 -2.6607L168.724 -3.6607ZM170.718 -2.6602L171.218 -2.66008L171.219 -3.66008L170.719 -3.6602L170.718 -2.6602ZM177.699 -3.65846L177.199 -3.65859L177.199 -2.65859L177.699 -2.65846L177.699 -3.65846ZM187.671 -2.65598L188.171 -2.65586L188.172 -3.65586L187.672 -3.65598L187.671 -2.65598ZM202.63 -3.65226L202.13 -3.65238L202.13 -2.65238L202.63 -2.65226L202.63 -3.65226ZM204.624 -2.65176L205.124 -2.65164L205.125 -3.65164L204.625 -3.65176L204.624 -2.65176ZM211.605 -3.65003L211.105 -3.65015L211.105 -2.65015L211.605 -2.65003L211.605 -3.65003ZM221.577 -2.64754L222.077 -2.64742L222.078 -3.64742L221.578 -3.64754L221.577 -2.64754ZM236.536 -3.64382L236.036 -3.64395L236.036 -2.64395L236.536 -2.64382L236.536 -3.64382ZM238.53 -2.64332L239.03 -2.6432L239.031 -3.6432L238.531 -3.64332L238.53 -2.64332ZM245.511 -3.64159L245.011 -3.64171L245.011 -2.64171L245.511 -2.64159L245.511 -3.64159ZM255.483 -2.63911L255.983 -2.63898L255.983 -3.63898L255.483 -3.63911L255.483 -2.63911ZM270.442 -3.63538L269.942 -3.63551L269.942 -2.63551L270.442 -2.63538L270.442 -3.63538ZM272.436 -2.63489L272.936 -2.63476L272.936 -3.63476L272.436 -3.63489L272.436 -2.63489ZM279.417 -3.63315L278.917 -3.63327L278.917 -2.63327L279.417 -2.63315L279.417 -3.63315ZM289.389 -2.63067L289.889 -2.63054L289.889 -3.63054L289.389 -3.63067L289.389 -2.63067ZM304.348 -3.62695L303.848 -3.62707L303.848 -2.62707L304.348 -2.62695L304.348 -3.62695ZM306.342 -2.62645L306.842 -2.62632L306.842 -3.62632L306.342 -3.62645L306.342 -2.62645ZM313.323 -3.62471L312.823 -3.62484L312.823 -2.62484L313.323 -2.62471L313.323 -3.62471ZM323.295 -2.62223L323.795 -2.62211L323.795 -3.62211L323.295 -3.62223L323.295 -2.62223ZM338.254 -3.61851L337.754 -3.61863L337.754 -2.61863L338.254 -2.61851L338.254 -3.61851ZM340.248 -2.61801L340.748 -2.61789L340.748 -3.61789L340.248 -3.61801L340.248 -2.61801ZM347.229 -3.61627L346.729 -3.6164L346.729 -2.6164L347.229 -2.61627L347.229 -3.61627ZM357.201 -2.61379L357.701 -2.61367L357.701 -3.61367L357.201 -3.61379L357.201 -2.61379ZM372.16 -3.61007L371.66 -3.61019L371.659 -2.61019L372.159 -2.61007L372.16 -3.61007ZM374.154 -2.60957L374.654 -2.60945L374.654 -3.60945L374.154 -3.60957L374.154 -2.60957ZM381.135 -3.60784L380.635 -3.60796L380.635 -2.60796L381.135 -2.60784L381.135 -3.60784ZM391.107 -2.60536L391.607 -2.60523L391.607 -3.60523L391.107 -3.60536L391.107 -2.60536ZM406.066 -3.60163L405.566 -3.60176L405.565 -2.60176L406.065 -2.60163L406.066 -3.60163ZM408.06 -2.60114L408.56 -2.60101L408.56 -3.60101L408.06 -3.60114L408.06 -2.60114ZM415.041 -3.5994L414.541 -3.59952L414.54 -2.59952L415.04 -2.5994L415.041 -3.5994ZM425.013 -2.59692L425.513 -2.59679L425.513 -3.59679L425.013 -3.59692L425.013 -2.59692ZM439.972 -3.59319L439.472 -3.59332L439.471 -2.59332L439.971 -2.59319L439.972 -3.59319ZM441.966 -2.5927L442.466 -2.59257L442.466 -3.59257L441.966 -3.5927L441.966 -2.5927ZM448.947 -3.59096L448.447 -3.59109L448.446 -2.59109L448.946 -2.59096L448.947 -3.59096ZM458.919 -2.58848L459.419 -2.58836L459.419 -3.58836L458.919 -3.58848L458.919 -2.58848ZM473.877 -3.58476L473.377 -3.58488L473.377 -2.58488L473.877 -2.58476L473.877 -3.58476ZM475.872 -2.58426L476.372 -2.58414L476.372 -3.58414L475.872 -3.58426L475.872 -2.58426ZM482.853 -3.58252L482.353 -3.58265L482.352 -2.58265L482.852 -2.58252L482.853 -3.58252ZM492.825 -2.58004L493.325 -2.57992L493.325 -3.57992L492.825 -3.58004L492.825 -2.58004ZM507.783 -3.57632L507.283 -3.57644L507.283 -2.57644L507.783 -2.57632L507.783 -3.57632ZM509.778 -2.57582L510.278 -2.5757L510.278 -3.5757L509.778 -3.57582L509.778 -2.57582ZM516.758 -3.57409L516.258 -3.57421L516.258 -2.57421L516.758 -2.57409L516.758 -3.57409ZM526.731 -2.5716L527.231 -2.57148L527.231 -3.57148L526.731 -3.5716L526.731 -2.5716ZM541.689 -3.56788L541.189 -3.56801L541.189 -2.56801L541.689 -2.56788L541.689 -3.56788ZM543.683 -2.56739L544.183 -2.56726L544.184 -3.56726L543.684 -3.56739L543.683 -2.56739ZM550.664 -3.56565L550.164 -3.56577L550.164 -2.56577L550.664 -2.56565L550.664 -3.56565ZM560.636 -2.56317L561.136 -2.56304L561.137 -3.56304L560.637 -3.56317L560.636 -2.56317ZM575.595 -3.55944L575.095 -3.55957L575.095 -2.55957L575.595 -2.55944L575.595 -3.55944ZM577.589 -2.55895L578.089 -2.55882L578.09 -3.55882L577.59 -3.55895L577.589 -2.55895ZM584.57 -3.55721L584.07 -3.55734L584.07 -2.55734L584.57 -2.55721L584.57 -3.55721ZM594.542 -2.55473L595.042 -2.5546L595.043 -3.5546L594.543 -3.55473L594.542 -2.55473ZM609.501 -3.55101L609.001 -3.55113L609.001 -2.55113L609.501 -2.55101L609.501 -3.55101ZM611.495 -2.55051L611.995 -2.55039L611.996 -3.55039L611.496 -3.55051L611.495 -2.55051ZM618.476 -3.54877L617.976 -3.5489L617.976 -2.5489L618.476 -2.54877L618.476 -3.54877ZM628.448 -2.54629L628.948 -2.54617L628.949 -3.54617L628.449 -3.54629L628.448 -2.54629ZM643.407 -3.54257L642.907 -3.54269L642.907 -2.54269L643.407 -2.54257L643.407 -3.54257ZM645.401 -2.54207L645.901 -2.54195L645.902 -3.54195L645.402 -3.54207L645.401 -2.54207ZM652.382 -3.54034L651.882 -3.54046L651.882 -2.54046L652.382 -2.54034L652.382 -3.54034ZM662.354 -2.53785L662.854 -2.53773L662.855 -3.53773L662.355 -3.53785L662.354 -2.53785ZM677.313 -3.53413L676.813 -3.53426L676.813 -2.53426L677.313 -2.53413L677.313 -3.53413ZM679.307 -2.53363L679.807 -2.53351L679.808 -3.53351L679.308 -3.53363L679.307 -2.53363ZM686.288 -3.5319L685.788 -3.53202L685.788 -2.53202L686.288 -2.5319L686.288 -3.5319ZM696.26 -2.52942L696.76 -2.52929L696.761 -3.52929L696.261 -3.52942L696.26 -2.52942ZM711.219 -3.52569L710.719 -3.52582L710.719 -2.52582L711.219 -2.52569L711.219 -3.52569ZM713.213 -2.5252L713.713 -2.52507L713.713 -3.52507L713.213 -3.5252L713.213 -2.5252ZM720.194 -3.52346L719.694 -3.52358L719.694 -2.52358L720.194 -2.52346L720.194 -3.52346ZM730.166 -2.52098L730.666 -2.52085L730.666 -3.52085L730.166 -3.52098L730.166 -2.52098ZM745.125 -3.51726L744.625 -3.51738L744.625 -2.51738L745.125 -2.51726L745.125 -3.51726ZM745.388 -2.23661L745.256 -1.75453L746.22 -1.48921L746.353 -1.97129L745.388 -2.23661ZM744.594 4.42014L744.726 3.93806L743.762 3.67273L743.629 4.15481L744.594 4.42014ZM741.117 13.2854L740.984 13.7675L741.948 14.0328L742.081 13.5507L741.117 13.2854ZM738.312 27.2466L738.444 26.7646L737.48 26.4992L737.347 26.9813L738.312 27.2466ZM736.845 28.8074L736.712 29.2895L737.676 29.5548L737.809 29.0728L736.845 28.8074ZM736.05 35.4642L736.183 34.9821L735.219 34.7168L735.086 35.1989L736.05 35.4642ZM732.573 44.3295L732.44 44.8115L733.405 45.0769L733.537 44.5948L732.573 44.3295ZM729.768 58.2907L729.901 57.8086L728.937 57.5433L728.804 58.0254L729.768 58.2907ZM728.301 59.8515L728.169 60.3336L729.133 60.5989L729.265 60.1168L728.301 59.8515ZM727.507 66.5082L727.639 66.0262L726.675 65.7608L726.542 66.2429L727.507 66.5082ZM724.03 75.3735L723.897 75.8556L724.861 76.1209L724.994 75.6388L724.03 75.3735ZM721.224 89.3348L721.357 88.8527L720.393 88.5874L720.26 89.0694L721.224 89.3348ZM719.466 90.7151L719.181 91.1258L720.002 91.6962L720.287 91.2855L719.466 90.7151ZM715.985 97.4814L716.27 97.0707L715.449 96.5003L715.164 96.911L715.985 97.4814ZM709.017 105.762L708.732 106.173L709.554 106.743L709.839 106.333L709.017 105.762ZM700.62 119.61L700.905 119.199L700.083 118.629L699.798 119.039L700.62 119.61ZM698.569 120.81L698.284 121.22L699.105 121.791L699.39 121.38L698.569 120.81ZM695.088 127.576L695.373 127.165L694.552 126.595L694.267 127.005L695.088 127.576ZM688.121 135.857L687.835 136.267L688.657 136.838L688.942 136.427L688.121 135.857ZM679.723 149.704L680.008 149.293L679.187 148.723L678.901 149.134L679.723 149.704ZM677.672 150.904L677.387 151.315L678.208 151.885L678.494 151.474L677.672 150.904ZM674.191 157.67L674.476 157.26L673.655 156.689L673.37 157.1L674.191 157.67ZM667.224 165.951L666.939 166.362L667.76 166.932L668.045 166.522L667.224 165.951ZM658.826 179.799L659.111 179.388L658.29 178.817L658.005 179.228L658.826 179.799ZM656.579 180.611L656.162 180.888L656.717 181.721L657.133 181.444L656.579 180.611ZM650.519 185.846L650.935 185.569L650.381 184.737L649.965 185.014L650.519 185.846ZM640.516 191.303L640.1 191.58L640.654 192.412L641.07 192.135L640.516 191.303ZM626.898 201.569L627.314 201.292L626.76 200.46L626.343 200.737L626.898 201.569ZM624.454 201.995L624.038 202.272L624.592 203.104L625.008 202.827L624.454 201.995ZM618.394 207.23L618.81 206.953L618.256 206.12L617.84 206.397L618.394 207.23ZM608.391 212.687L607.975 212.964L608.529 213.796L608.945 213.519L608.391 212.687ZM594.773 222.953L595.189 222.676L594.635 221.843L594.218 222.12L594.773 222.953ZM592.329 223.378L591.913 223.655L592.467 224.488L592.883 224.211L592.329 223.378ZM586.269 228.613L586.685 228.336L586.131 227.504L585.715 227.781L586.269 228.613ZM576.266 234.07L575.85 234.347L576.404 235.18L576.82 234.903L576.266 234.07ZM562.648 244.337L563.064 244.059L562.51 243.227L562.094 243.504L562.648 244.337ZM560.354 244.384L559.88 244.545L560.201 245.492L560.674 245.332L560.354 244.384ZM554.292 247.493L554.766 247.333L554.445 246.386L553.971 246.546L554.292 247.493ZM544.854 249.634L544.381 249.794L544.701 250.741L545.175 250.581L544.854 249.634ZM531.499 255.213L531.972 255.052L531.652 254.105L531.178 254.266L531.499 255.213ZM529.355 254.883L528.881 255.044L529.202 255.991L529.675 255.83L529.355 254.883ZM523.293 257.992L523.767 257.831L523.446 256.884L522.972 257.045L523.293 257.992ZM513.855 260.133L513.382 260.293L513.702 261.24L514.176 261.08L513.855 260.133ZM500.5 265.712L500.973 265.551L500.653 264.604L500.179 264.764L500.5 265.712ZM498.356 265.382L497.882 265.542L498.203 266.49L498.676 266.329L498.356 265.382ZM492.294 268.491L492.768 268.33L492.447 267.383L491.973 267.543L492.294 268.491ZM482.856 270.631L482.383 270.792L482.703 271.739L483.177 271.579L482.856 270.631ZM469.501 276.21L469.974 276.05L469.654 275.103L469.18 275.263L469.501 276.21ZM467.357 275.881L466.883 276.041L467.204 276.988L467.677 276.828L467.357 275.881ZM461.295 278.989L461.769 278.829L461.448 277.882L460.974 278.042L461.295 278.989ZM451.857 281.13L451.383 281.291L451.704 282.238L452.178 282.077L451.857 281.13ZM438.502 286.709L438.975 286.549L438.655 285.602L438.181 285.762L438.502 286.709ZM436.385 286.187L435.89 286.257L436.029 287.247L436.524 287.177L436.385 286.187ZM429.699 288.141L430.194 288.071L430.054 287.081L429.559 287.151L429.699 288.141ZM419.808 288.528L419.313 288.598L419.453 289.588L419.948 289.518L419.808 288.528ZM405.321 291.584L405.816 291.514L405.676 290.524L405.181 290.594L405.321 291.584ZM403.231 290.87L402.736 290.94L402.876 291.93L403.371 291.86L403.231 290.87ZM396.545 292.824L397.04 292.754L396.9 291.764L396.405 291.834L396.545 292.824ZM386.654 293.211L386.159 293.281L386.299 294.271L386.794 294.201L386.654 293.211ZM372.167 296.267L372.662 296.197L372.523 295.207L372.027 295.277L372.167 296.267ZM370.077 295.552L369.582 295.622L369.722 296.612L370.217 296.542L370.077 295.552ZM363.391 297.507L363.886 297.437L363.747 296.446L363.252 296.516L363.391 297.507ZM353.5 297.894L353.005 297.964L353.145 298.954L353.64 298.884L353.5 297.894ZM339.014 300.95L339.509 300.88L339.369 299.89L338.874 299.96L339.014 300.95ZM336.924 300.235L336.428 300.305L336.568 301.295L337.063 301.225L336.924 300.235ZM330.238 302.189L330.733 302.119L330.593 301.129L330.098 301.199L330.238 302.189ZM320.347 302.576L319.852 302.646L319.991 303.636L320.487 303.566L320.347 302.576ZM305.86 305.632L306.355 305.562L306.215 304.572L305.72 304.642L305.86 305.632ZM303.77 304.918L303.275 304.988L303.415 305.978L303.91 305.908L303.77 304.918ZM297.084 306.872L297.579 306.802L297.439 305.812L296.944 305.882L297.084 306.872ZM287.193 307.259L286.698 307.329L286.838 308.319L287.333 308.249L287.193 307.259ZM272.706 310.315L273.201 310.245L273.061 309.255L272.566 309.325L272.706 310.315ZM270.512 309.58L270.015 309.635L270.123 310.629L270.62 310.574L270.512 309.58ZM262.955 311.411L263.452 311.357L263.344 310.363L262.847 310.417L262.955 311.411ZM251.897 311.613L251.4 311.667L251.508 312.661L252.005 312.607L251.897 311.613ZM235.58 314.401L236.077 314.347L235.969 313.352L235.472 313.407L235.58 314.401ZM233.282 313.646L232.785 313.7L232.893 314.694L233.39 314.64L233.282 313.646ZM225.725 315.477L226.222 315.423L226.114 314.429L225.617 314.483L225.725 315.477ZM214.667 315.679L214.17 315.733L214.278 316.727L214.775 316.673L214.667 315.679ZM198.35 318.466L198.847 318.412L198.739 317.418L198.242 317.472L198.35 318.466ZM196.052 317.712L195.554 317.766L195.663 318.76L196.16 318.706L196.052 317.712ZM188.495 319.543L188.992 319.488L188.884 318.494L188.386 318.549L188.495 319.543ZM177.436 319.744L176.939 319.799L177.048 320.793L177.545 320.738L177.436 319.744ZM161.12 322.532L161.617 322.478L161.508 321.484L161.011 321.538L161.12 322.532ZM158.821 321.777L158.324 321.831L158.433 322.826L158.93 322.771L158.821 321.777ZM151.265 323.608L151.762 323.554L151.653 322.56L151.156 322.614L151.265 323.608ZM140.206 323.81L139.709 323.864L139.818 324.858L140.315 324.804L140.206 323.81ZM123.89 326.598L124.387 326.543L124.278 325.549L123.781 325.604L123.89 326.598ZM121.804 325.884L121.312 325.975L121.494 326.958L121.985 326.868L121.804 325.884ZM116.066 327.958L116.558 327.867L116.377 326.883L115.885 326.974L116.066 327.958ZM107.428 328.531L106.937 328.621L107.118 329.605L107.61 329.514L107.428 328.531ZM94.925 331.85L95.4168 331.759L95.2357 330.776L94.744 330.866L94.925 331.85ZM93.0527 331.178L92.561 331.268L92.742 332.252L93.2338 332.161L93.0527 331.178ZM87.3143 333.251L87.8061 333.16L87.625 332.177L87.1333 332.267L87.3143 333.251ZM78.6769 333.824L78.1852 333.915L78.3663 334.898L78.858 334.808L78.6769 333.824ZM66.1735 337.143L66.6652 337.053L66.4842 336.069L65.9925 336.16L66.1735 337.143ZM64.3012 336.471L63.8095 336.562L63.9905 337.545L64.4822 337.455L64.3012 336.471ZM58.5628 338.544L59.0546 338.454L58.8735 337.47L58.3818 337.561L58.5628 338.544ZM49.9254 339.118L49.4337 339.208L49.6148 340.192L50.1065 340.101L49.9254 339.118ZM37.422 342.437L37.9137 342.346L37.7327 341.363L37.241 341.453L37.422 342.437ZM35.4158 341.6L34.9158 341.6L34.9155 342.6L35.4155 342.6L35.4158 341.6ZM27.9241 342.598L28.4241 342.598L28.4244 341.598L27.9244 341.598L27.9241 342.598ZM17.2224 341.596L16.7224 341.596L16.7221 342.596L17.2221 342.596L17.2224 341.596ZM1.16909 342.592L1.66909 342.592L1.66936 341.592L1.16936 341.592L1.16909 342.592ZM0.599293 341.103L0.599428 340.603L-0.400572 340.602L-0.400707 341.102L0.599293 341.103ZM-0.398845 334.181L-0.398979 334.681L0.601021 334.681L0.601155 334.181L-0.398845 334.181ZM0.603815 324.292L0.603949 323.792L-0.396051 323.792L-0.396185 324.292L0.603815 324.292ZM-0.392196 309.459L-0.392331 309.959L0.607669 309.96L0.607804 309.46L-0.392196 309.459ZM0.608336 307.482L0.60847 306.982L-0.39153 306.982L-0.391664 307.482L0.608336 307.482ZM-0.389803 300.56L-0.389937 301.06L0.610063 301.06L0.610197 300.56L-0.389803 300.56ZM0.612857 290.672L0.612991 290.172L-0.387009 290.171L-0.387143 290.671L0.612857 290.672ZM-0.383154 275.839L-0.383288 276.339L0.616712 276.339L0.616846 275.839L-0.383154 275.839ZM0.617378 273.861L0.617513 273.361L-0.382487 273.361L-0.382622 273.861L0.617378 273.861ZM-0.38076 266.939L-0.380895 267.439L0.619105 267.439L0.61924 266.939L-0.38076 266.939ZM0.621899 257.051L0.622034 256.551L-0.377966 256.551L-0.378101 257.051L0.621899 257.051ZM-0.374111 242.218L-0.374246 242.718L0.625754 242.718L0.625888 242.218L-0.374111 242.218ZM0.62642 240.24L0.626555 239.74L-0.373445 239.74L-0.37358 240.24L0.62642 240.24ZM-0.371718 233.318L-0.371852 233.818L0.628148 233.819L0.628282 233.319L-0.371718 233.318ZM0.630942 223.43L0.631076 222.93L-0.368924 222.93L-0.369058 223.43L0.630942 223.43ZM-0.365069 208.597L-0.365204 209.097L0.634796 209.097L0.634931 208.597L-0.365069 208.597ZM0.635463 206.62L0.635597 206.12L-0.364403 206.119L-0.364537 206.619L0.635463 206.62ZM-0.362676 199.698L-0.36281 200.198L0.63719 200.198L0.637324 199.698L-0.362676 199.698ZM0.639984 189.809L0.640118 189.309L-0.359882 189.309L-0.360016 189.809L0.639984 189.809ZM-0.356027 174.976L-0.356161 175.476L0.643839 175.477L0.643973 174.977L-0.356027 174.976ZM0.644505 172.999L0.644639 172.499L-0.35536 172.499L-0.355495 172.999L0.644505 172.999ZM-0.353633 166.077L-0.353768 166.577L0.646232 166.577L0.646367 166.077L-0.353633 166.077ZM0.649026 156.189L0.649161 155.689L-0.350839 155.688L-0.350974 156.188L0.649026 156.189ZM-0.346985 141.356L-0.347119 141.856L0.652881 141.856L0.653015 141.356L-0.346985 141.356ZM0.653547 139.378L0.653682 138.878L-0.346318 138.878L-0.346453 139.378L0.653547 139.378ZM-0.344591 132.456L-0.344725 132.956L0.655275 132.956L0.655409 132.456L-0.344591 132.456ZM0.658068 122.568L0.658203 122.068L-0.341797 122.068L-0.341931 122.568L0.658068 122.568ZM-0.337942 107.735L-0.338077 108.235L0.661923 108.235L0.662058 107.735L-0.337942 107.735ZM0.66259 105.757L0.662724 105.257L-0.337276 105.257L-0.33741 105.757L0.66259 105.757ZM-0.335549 98.8353L-0.335683 99.3353L0.664317 99.3356L0.664451 98.8356L-0.335549 98.8353ZM0.667111 88.9471L0.667245 88.4471L-0.332755 88.4469L-0.332889 88.9469L0.667111 88.9471ZM-0.3289 74.1142L-0.329034 74.6142L0.670966 74.6144L0.6711 74.1144L-0.3289 74.1142ZM0.671632 72.1367L0.671766 71.6367L-0.328233 71.6365L-0.328368 72.1365L0.671632 72.1367ZM-0.326506 65.2146L-0.326641 65.7146L0.673359 65.7148L0.673494 65.2148L-0.326506 65.2146ZM0.676153 55.3264L0.676288 54.8264L-0.323712 54.8261L-0.323847 55.3261L0.676153 55.3264ZM-0.319858 40.4934L-0.319992 40.9934L0.680008 40.9937L0.680142 40.4937L-0.319858 40.4934ZM0.680674 38.516L0.680809 38.016L-0.319191 38.0158L-0.319326 38.5158L0.680674 38.516ZM-0.317464 31.5938L-0.317598 32.0938L0.682401 32.0941L0.682536 31.5941L-0.317464 31.5938ZM0.685195 21.7056L0.68533 21.2056L-0.31467 21.2054L-0.314804 21.7054L0.685195 21.7056ZM-0.310815 6.87271L-0.31095 7.37271L0.68905 7.37296L0.689185 6.87296L-0.310815 6.87271ZM0.689451 5.88417L0.689523 5.61692L-0.310477 5.61667L-0.310549 5.88392L0.689451 5.88417ZM0.690026 3.74613L0.690744 1.07358L-0.309255 1.07333L-0.309974 3.74588L0.690026 3.74613ZM0.691823 -2.93526L0.691895 -3.20251L-0.308105 -3.20276L-0.308177 -2.93551L0.691823 -2.93526ZM0.19176 -2.70264L1.18899 -2.70239L1.18926 -3.70239L0.192029 -3.70264L0.19176 -2.70264ZM8.16962 -2.70065L18.1419 -2.69817L18.1422 -3.69817L8.16989 -3.70065L8.16962 -2.70065ZM33.1004 -2.69445L35.0949 -2.69395L35.0952 -3.69395L33.1007 -3.69445L33.1004 -2.69445ZM42.0755 -2.69221L52.0478 -2.68973L52.0481 -3.68973L42.0758 -3.69221L42.0755 -2.69221ZM67.0063 -2.68601L69.0008 -2.68551L69.0011 -3.68551L67.0066 -3.68601L67.0063 -2.68601ZM75.9814 -2.68378L85.9538 -2.68129L85.954 -3.68129L75.9817 -3.68378L75.9814 -2.68378ZM100.912 -2.67757L102.907 -2.67708L102.907 -3.67708L100.913 -3.67757L100.912 -2.67757ZM109.887 -2.67534L119.86 -2.67286L119.86 -3.67286L109.888 -3.67534L109.887 -2.67534ZM134.818 -2.66913L136.813 -2.66864L136.813 -3.66864L134.818 -3.66913L134.818 -2.66913ZM143.793 -2.6669L153.766 -2.66442L153.766 -3.66442L143.793 -3.6669L143.793 -2.6669ZM168.724 -2.6607L170.718 -2.6602L170.719 -3.6602L168.724 -3.6607L168.724 -2.6607ZM177.699 -2.65846L187.671 -2.65598L187.672 -3.65598L177.699 -3.65846L177.699 -2.65846ZM202.63 -2.65226L204.624 -2.65176L204.625 -3.65176L202.63 -3.65226L202.63 -2.65226ZM211.605 -2.65003L221.577 -2.64754L221.578 -3.64754L211.605 -3.65003L211.605 -2.65003ZM236.536 -2.64382L238.53 -2.64332L238.531 -3.64332L236.536 -3.64382L236.536 -2.64382ZM245.511 -2.64159L255.483 -2.63911L255.483 -3.63911L245.511 -3.64159L245.511 -2.64159ZM270.442 -2.63538L272.436 -2.63489L272.436 -3.63489L270.442 -3.63538L270.442 -2.63538ZM279.417 -2.63315L289.389 -2.63067L289.389 -3.63067L279.417 -3.63315L279.417 -2.63315ZM304.348 -2.62695L306.342 -2.62645L306.342 -3.62645L304.348 -3.62695L304.348 -2.62695ZM313.323 -2.62471L323.295 -2.62223L323.295 -3.62223L313.323 -3.62471L313.323 -2.62471ZM338.254 -2.61851L340.248 -2.61801L340.248 -3.61801L338.254 -3.61851L338.254 -2.61851ZM347.229 -2.61627L357.201 -2.61379L357.201 -3.61379L347.229 -3.61627L347.229 -2.61627ZM372.159 -2.61007L374.154 -2.60957L374.154 -3.60957L372.16 -3.61007L372.159 -2.61007ZM381.135 -2.60784L391.107 -2.60536L391.107 -3.60536L381.135 -3.60784L381.135 -2.60784ZM406.065 -2.60163L408.06 -2.60114L408.06 -3.60114L406.066 -3.60163L406.065 -2.60163ZM415.04 -2.5994L425.013 -2.59692L425.013 -3.59692L415.041 -3.5994L415.04 -2.5994ZM439.971 -2.59319L441.966 -2.5927L441.966 -3.5927L439.972 -3.59319L439.971 -2.59319ZM448.946 -2.59096L458.919 -2.58848L458.919 -3.58848L448.947 -3.59096L448.946 -2.59096ZM473.877 -2.58476L475.872 -2.58426L475.872 -3.58426L473.877 -3.58476L473.877 -2.58476ZM482.852 -2.58252L492.825 -2.58004L492.825 -3.58004L482.853 -3.58252L482.852 -2.58252ZM507.783 -2.57632L509.778 -2.57582L509.778 -3.57582L507.783 -3.57632L507.783 -2.57632ZM516.758 -2.57409L526.731 -2.5716L526.731 -3.5716L516.758 -3.57409L516.758 -2.57409ZM541.689 -2.56788L543.683 -2.56739L543.684 -3.56739L541.689 -3.56788L541.689 -2.56788ZM550.664 -2.56565L560.636 -2.56317L560.637 -3.56317L550.664 -3.56565L550.664 -2.56565ZM575.595 -2.55944L577.589 -2.55895L577.59 -3.55895L575.595 -3.55944L575.595 -2.55944ZM584.57 -2.55721L594.542 -2.55473L594.543 -3.55473L584.57 -3.55721L584.57 -2.55721ZM609.501 -2.55101L611.495 -2.55051L611.496 -3.55051L609.501 -3.55101L609.501 -2.55101ZM618.476 -2.54877L628.448 -2.54629L628.449 -3.54629L618.476 -3.54877L618.476 -2.54877ZM643.407 -2.54257L645.401 -2.54207L645.402 -3.54207L643.407 -3.54257L643.407 -2.54257ZM652.382 -2.54034L662.354 -2.53785L662.355 -3.53785L652.382 -3.54034L652.382 -2.54034ZM677.313 -2.53413L679.307 -2.53363L679.308 -3.53363L677.313 -3.53413L677.313 -2.53413ZM686.288 -2.5319L696.26 -2.52942L696.261 -3.52942L686.288 -3.5319L686.288 -2.5319ZM711.219 -2.52569L713.213 -2.5252L713.213 -3.5252L711.219 -3.52569L711.219 -2.52569ZM720.194 -2.52346L730.166 -2.52098L730.166 -3.52098L720.194 -3.52346L720.194 -2.52346ZM745.125 -2.51726L746.122 -2.51701L746.122 -3.51701L745.125 -3.51726L745.125 -2.51726ZM745.64 -3.14967L745.388 -2.23661L746.353 -1.97129L746.604 -2.88435L745.64 -3.14967ZM743.629 4.15481L741.117 13.2854L742.081 13.5507L744.594 4.42014L743.629 4.15481ZM737.347 26.9813L736.845 28.8074L737.809 29.0728L738.312 27.2466L737.347 26.9813ZM735.086 35.1989L732.573 44.3295L733.537 44.5948L736.05 35.4642L735.086 35.1989ZM728.804 58.0254L728.301 59.8515L729.265 60.1168L729.768 58.2907L728.804 58.0254ZM726.542 66.2429L724.03 75.3735L724.994 75.6388L727.507 66.5082L726.542 66.2429ZM720.26 89.0694L720.009 89.9825L720.973 90.2478L721.224 89.3348L720.26 89.0694ZM720.08 89.83L719.466 90.7151L720.287 91.2855L720.902 90.4003L720.08 89.83ZM715.164 96.911L709.017 105.762L709.839 106.333L715.985 97.4814L715.164 96.911ZM699.798 119.039L698.569 120.81L699.39 121.38L700.62 119.61L699.798 119.039ZM694.267 127.005L688.121 135.857L688.942 136.427L695.088 127.576L694.267 127.005ZM678.901 149.134L677.672 150.904L678.494 151.474L679.723 149.704L678.901 149.134ZM673.37 157.1L667.224 165.951L668.045 166.522L674.191 157.67L673.37 157.1ZM658.005 179.228L657.39 180.113L658.211 180.684L658.826 179.799L658.005 179.228ZM657.524 179.982L656.579 180.611L657.133 181.444L658.078 180.815L657.524 179.982ZM649.965 185.014L640.516 191.303L641.07 192.135L650.519 185.846L649.965 185.014ZM626.343 200.737L624.454 201.995L625.008 202.827L626.898 201.569L626.343 200.737ZM617.84 206.397L608.391 212.687L608.945 213.519L618.394 207.23L617.84 206.397ZM594.218 222.12L592.329 223.378L592.883 224.211L594.773 222.953L594.218 222.12ZM585.715 227.781L576.266 234.07L576.82 234.903L586.269 228.613L585.715 227.781ZM562.094 243.504L561.149 244.133L561.703 244.965L562.648 244.337L562.094 243.504ZM561.265 244.076L560.354 244.384L560.674 245.332L561.586 245.023L561.265 244.076ZM553.971 246.546L544.854 249.634L545.175 250.581L554.292 247.493L553.971 246.546ZM531.178 254.266L529.355 254.883L529.675 255.83L531.499 255.213L531.178 254.266ZM522.972 257.045L513.855 260.133L514.176 261.08L523.293 257.992L522.972 257.045ZM500.179 264.764L498.356 265.382L498.676 266.329L500.5 265.712L500.179 264.764ZM491.973 267.543L482.856 270.631L483.177 271.579L492.294 268.491L491.973 267.543ZM469.18 275.263L467.357 275.881L467.677 276.828L469.501 276.21L469.18 275.263ZM460.974 278.042L451.857 281.13L452.178 282.077L461.295 278.989L460.974 278.042ZM438.181 285.762L437.269 286.071L437.59 287.018L438.502 286.709L438.181 285.762ZM437.36 286.049L436.385 286.187L436.524 287.177L437.5 287.039L437.36 286.049ZM429.559 287.151L419.808 288.528L419.948 289.518L429.699 288.141L429.559 287.151ZM405.181 290.594L403.231 290.87L403.371 291.86L405.321 291.584L405.181 290.594ZM396.405 291.834L386.654 293.211L386.794 294.201L396.545 292.824L396.405 291.834ZM372.027 295.277L370.077 295.552L370.217 296.542L372.167 296.267L372.027 295.277ZM363.252 296.516L353.5 297.894L353.64 298.884L363.391 297.507L363.252 296.516ZM338.874 299.96L336.924 300.235L337.063 301.225L339.014 300.95L338.874 299.96ZM330.098 301.199L320.347 302.576L320.487 303.566L330.238 302.189L330.098 301.199ZM305.72 304.642L303.77 304.918L303.91 305.908L305.86 305.632L305.72 304.642ZM296.944 305.882L287.193 307.259L287.333 308.249L297.084 306.872L296.944 305.882ZM272.566 309.325L271.591 309.463L271.731 310.453L272.706 310.315L272.566 309.325ZM271.607 309.461L270.512 309.58L270.62 310.574L271.715 310.455L271.607 309.461ZM262.847 310.417L251.897 311.613L252.005 312.607L262.955 311.411L262.847 310.417ZM235.472 313.407L233.282 313.646L233.39 314.64L235.58 314.401L235.472 313.407ZM225.617 314.483L214.667 315.679L214.775 316.673L225.725 315.477L225.617 314.483ZM198.242 317.472L196.052 317.712L196.16 318.706L198.35 318.466L198.242 317.472ZM188.386 318.549L177.436 319.744L177.545 320.738L188.495 319.543L188.386 318.549ZM161.011 321.538L158.821 321.777L158.93 322.771L161.12 322.532L161.011 321.538ZM151.156 322.614L140.206 323.81L140.315 324.804L151.265 323.608L151.156 322.614ZM123.781 325.604L122.686 325.723L122.795 326.717L123.89 326.598L123.781 325.604ZM122.65 325.729L121.804 325.884L121.985 326.868L122.831 326.712L122.65 325.729ZM115.885 326.974L107.428 328.531L107.61 329.514L116.066 327.958L115.885 326.974ZM94.744 330.866L93.0527 331.178L93.2338 332.161L94.925 331.85L94.744 330.866ZM87.1333 332.267L78.6769 333.824L78.858 334.808L87.3143 333.251L87.1333 332.267ZM65.9925 336.16L64.3012 336.471L64.4822 337.455L66.1735 337.143L65.9925 336.16ZM58.3818 337.561L49.9254 339.118L50.1065 340.101L58.5628 338.544L58.3818 337.561ZM37.241 341.453L36.3953 341.609L36.5764 342.592L37.422 342.437L37.241 341.453ZM36.486 341.6L35.4158 341.6L35.4155 342.6L36.4857 342.6L36.486 341.6ZM27.9244 341.598L17.2224 341.596L17.2221 342.596L27.9241 342.598L27.9244 341.598ZM1.16936 341.592L0.099162 341.591L0.098893 342.591L1.16909 342.592L1.16936 341.592ZM0.599027 342.092L0.599293 341.103L-0.400707 341.102L-0.400972 342.091L0.599027 342.092ZM0.601155 334.181L0.603815 324.292L-0.396185 324.292L-0.398845 334.181L0.601155 334.181ZM0.607804 309.46L0.608336 307.482L-0.391664 307.482L-0.392196 309.459L0.607804 309.46ZM0.610197 300.56L0.612857 290.672L-0.387143 290.671L-0.389803 300.56L0.610197 300.56ZM0.616846 275.839L0.617378 273.861L-0.382622 273.861L-0.383154 275.839L0.616846 275.839ZM0.61924 266.939L0.621899 257.051L-0.378101 257.051L-0.38076 266.939L0.61924 266.939ZM0.625888 242.218L0.62642 240.24L-0.37358 240.24L-0.374111 242.218L0.625888 242.218ZM0.628282 233.319L0.630942 223.43L-0.369058 223.43L-0.371718 233.318L0.628282 233.319ZM0.634931 208.597L0.635463 206.62L-0.364537 206.619L-0.365069 208.597L0.634931 208.597ZM0.637324 199.698L0.639984 189.809L-0.360016 189.809L-0.362676 199.698L0.637324 199.698ZM0.643973 174.977L0.644505 172.999L-0.355495 172.999L-0.356027 174.976L0.643973 174.977ZM0.646367 166.077L0.649026 156.189L-0.350974 156.188L-0.353633 166.077L0.646367 166.077ZM0.653015 141.356L0.653547 139.378L-0.346453 139.378L-0.346985 141.356L0.653015 141.356ZM0.655409 132.456L0.658068 122.568L-0.341931 122.568L-0.344591 132.456L0.655409 132.456ZM0.662058 107.735L0.66259 105.757L-0.33741 105.757L-0.337942 107.735L0.662058 107.735ZM0.664451 98.8356L0.667111 88.9471L-0.332889 88.9469L-0.335549 98.8353L0.664451 98.8356ZM0.6711 74.1144L0.671632 72.1367L-0.328368 72.1365L-0.3289 74.1142L0.6711 74.1144ZM0.673494 65.2148L0.676153 55.3264L-0.323847 55.3261L-0.326506 65.2146L0.673494 65.2148ZM0.680142 40.4937L0.680674 38.516L-0.319326 38.5158L-0.319858 40.4934L0.680142 40.4937ZM0.682536 31.5941L0.685195 21.7056L-0.314804 21.7054L-0.317464 31.5938L0.682536 31.5941ZM0.689185 6.87296L0.689451 5.88417L-0.310549 5.88392L-0.310815 6.87271L0.689185 6.87296Z" fill="black"/>
<path d="M3.72907 710.17L267.415 710.956L282.153 666.721L282.113 605.04L267.298 529.707L246.676 472.363L222.218 409.331L188.079 354.189L3.38454 177L3.72907 710.17Z" fill="#D9FFCC" stroke="black" stroke-linecap="square" stroke-dasharray="2 7 10 15"/>
<path d="M1.52173 710.464L171.645 710.972L181.177 675.942L181.186 627.105L171.669 567.467L158.396 522.074L142.651 472.178L120.657 428.534L1.59466 288.325L1.52173 710.464Z" fill="#C2FFAC" stroke="black" stroke-linecap="square" stroke-dasharray="2 7 10 15"/>
<path d="M-10 -5H481.773V50.7755L448.243 104.752L387.57 155.13L315.72 185.716L231.097 194.712L170.423 202.809L109.75 210.905H41.0933L-10 194.712V-5Z" fill="#B5FF9B" stroke="black" stroke-linecap="square" stroke-linejoin="round" stroke-dasharray="2 7 10 15"/>
<path d="M1519.32 709.471L755.847 709.803L755.815 632.393L807.838 557.457L902.004 487.496L1013.53 444.997L1144.91 432.454L1239.1 421.176L1333.29 409.898L1439.88 409.852L1519.21 432.291L1519.32 709.471Z" fill="#B5FF9B" stroke="black" stroke-linecap="round" stroke-linejoin="bevel" stroke-dasharray="2 10 15 25"/>
<path d="M1523.7 -11.6345L1299.2 -11.661L1286.73 19.7434L1286.87 63.4917L1299.61 116.893L1317.26 157.523L1338.19 202.18L1367.35 241.222L1524.89 366.523L1523.7 -11.6345Z" fill="#D9FFCC" stroke="black" stroke-linecap="square" stroke-dasharray="2 7 10 15"/>
<path d="M1525.58 -11.8481L1380.74 -11.8651L1372.68 12.9997L1372.76 47.6378L1380.96 89.9182L1392.34 122.087L1405.83 157.444L1424.63 188.356L1526.23 287.561L1525.58 -11.8481Z" fill="#C2FFAC" stroke="black" stroke-linecap="square" stroke-dasharray="2 7 10 15"/>
</g>
<defs>
<clipPath id="clip0_116_14">
<rect width="1519" height="703" fill="white"/>
</clipPath>
</defs>
</svg>
