<svg width="129" height="41" viewBox="0 0 129 41" fill="none" xmlns="http://www.w3.org/2000/svg">
<path d="M6.072 32H14.184V10.232H19.8V3.872H0.456V10.232H6.072V32ZM29.6323 32V18.008C29.6483 17.992 29.7283 17.92 29.8723 17.792C30.0323 17.664 30.1283 17.584 30.1603 17.552C30.2083 17.52 30.2963 17.456 30.4243 17.36C30.5683 17.264 30.6723 17.2 30.7363 17.168C30.8163 17.136 30.9203 17.088 31.0483 17.024C31.1763 16.96 31.2963 16.92 31.4083 16.904C31.5363 16.888 31.6643 16.88 31.7923 16.88C33.1203 16.88 33.7603 17.632 33.7123 19.136V32H41.6323V19.832C41.6323 19.72 41.6403 19.568 41.6563 19.376C41.6563 19.184 41.6563 19.04 41.6563 18.944C41.6563 16.128 41.2003 14.12 40.2883 12.92C39.3923 11.72 37.8483 11.12 35.6563 11.12C35.0323 11.12 34.3923 11.248 33.7363 11.504C33.0963 11.744 32.5443 12.04 32.0803 12.392C31.6163 12.728 31.1923 13.072 30.8083 13.424C30.4403 13.776 30.1603 14.08 29.9683 14.336L29.6803 14.696V0.56H28.1203L20.4163 1.76V3.992L21.8563 4.856V32H29.6323ZM52.374 32V21.032C52.838 20.168 53.886 19.736 55.518 19.736C56.654 19.736 57.39 19.888 57.726 20.192L58.542 11.648C58.11 11.504 57.694 11.432 57.294 11.432C53.742 11.432 51.638 13.392 50.982 17.312L50.286 11.6H48.342L43.182 12.872V15.584L44.622 16.472V32H52.374ZM60.4423 32H68.1703V11.6H64.1623L59.0023 13.016V15.584L60.4423 16.472V32ZM63.9223 9.392H64.8343L68.9383 5.432V4.592L64.8343 0.655999H63.9223L59.9863 4.592V5.432L63.9223 9.392ZM79.8334 32V15.824H82.9294V11.6H79.8334V8.168C79.8334 6.264 80.4494 5.216 81.6814 5.024C81.8574 4.992 82.0494 4.976 82.2574 4.976C83.0734 4.976 83.8654 5.168 84.6334 5.552L85.5454 1.904C85.3054 1.664 84.7054 1.4 83.7454 1.112C82.7854 0.824 81.7614 0.68 80.6734 0.68C79.4574 0.68 78.3534 0.832 77.3614 1.136C76.3854 1.424 75.4894 1.896 74.6734 2.552C73.8734 3.208 73.2494 4.128 72.8014 5.312C72.3534 6.496 72.1294 7.896 72.1294 9.512V11.6L69.7054 12.632V15.824H72.0334V32H79.8334ZM90.5974 32.504C91.6854 32.504 92.6694 32.384 93.5494 32.144C94.4454 31.904 95.0854 31.672 95.4694 31.448C95.8534 31.208 96.1654 30.968 96.4054 30.728V27.464C96.2294 27.608 96.0054 27.72 95.7334 27.8C95.4614 27.88 95.1574 27.92 94.8214 27.92C94.0534 27.92 93.4854 27.712 93.1174 27.296C92.7494 26.88 92.5654 26.032 92.5654 24.752V15.824H96.5734V11.6H92.6374V6.008H88.4134L85.9654 11.6L83.1334 12.488V15.824H84.7894V23.984C84.7894 27.072 85.2134 29.264 86.0614 30.56C86.9254 31.856 88.4374 32.504 90.5974 32.504ZM108.532 40.256C111.684 40.256 114.012 39.296 115.516 37.376C117.02 35.456 117.772 32.728 117.772 29.192V11.6H108.628V14.36L109.948 15.224V26.504C109.724 26.696 109.508 26.856 109.3 26.984C109.108 27.112 108.908 27.216 108.7 27.296C108.492 27.36 108.284 27.392 108.076 27.392C107.372 27.392 106.9 27.224 106.66 26.888C106.436 26.536 106.324 25.992 106.324 25.256V11.6H97.5883V14.36L98.4523 15.224V23.744C98.4523 26.912 98.9403 29.168 99.9163 30.512C100.892 31.84 102.572 32.504 104.956 32.504C105.58 32.504 106.188 32.376 106.78 32.12C107.388 31.864 107.9 31.56 108.316 31.208C108.732 30.84 109.1 30.48 109.42 30.128C109.756 29.76 110.004 29.448 110.164 29.192L110.404 28.808V30.872C110.388 31.832 110.284 32.64 110.092 33.296C109.9 33.952 109.62 34.456 109.252 34.808C108.884 35.176 108.468 35.432 108.004 35.576C107.54 35.72 106.988 35.792 106.348 35.792C104.332 35.792 102.86 35.528 101.932 35L100.684 37.592C101.356 38.408 102.42 39.056 103.876 39.536C105.332 40.016 106.884 40.256 108.532 40.256ZM123.429 32.456H124.341L128.445 28.496V27.656L124.341 23.72H123.429L119.493 27.656V28.496L123.429 32.456Z" fill="black"/>
</svg>
